<?xml version="1.0" encoding="utf-8"?>
<!-- Generator: Adobe Illustrator 15.0.0, SVG Export Plug-In . SVG Version: 6.00 Build 0)  -->
<!DOCTYPE svg PUBLIC "-//W3C//DTD SVG 1.1//EN" "http://www.w3.org/Graphics/SVG/1.1/DTD/svg11.dtd">
<svg version="1.1" id="Ebene_1" xmlns="http://www.w3.org/2000/svg" xmlns:xlink="http://www.w3.org/1999/xlink" x="0px" y="0px"
	 width="138px" height="276px" viewBox="0 0 138 276" enable-background="new 0 0 138 276" xml:space="preserve">
<g>
	<path fill="none" d="M71.992,9.712c0.841-0.198,1.285-0.396,1.533,0c0.246,0.396,1.234,0.298,1.533-0.198
		c0.297-0.494,0.196-0.691-0.149-1.285c-0.498-0.854-2.323-1.138-3.165-0.94c-0.842,0.198-1.434,0.693-1.335,1.484
		S71.15,9.911,71.992,9.712z"/>
	<path fill="none" d="M79.113,9.416c0.693-0.396,1.582-1.088,1.386-1.83c-0.144-0.534-0.841-1.534-1.632-1.187
		c-0.792,0.347-0.941,0.248-1.236-0.396c-0.298-0.643-1.188-0.296-1.484,0.248c-0.295,0.544,0.396,2.028,0.742,2.621
		C77.236,9.465,78.422,9.812,79.113,9.416z"/>
	<path fill="#606060" d="M86.359,22.94c-0.604,0.546-1.291,1.165-2.051,1.463c-0.312,0.123-0.688,0.355-0.724,0.77
		c-0.034,0.409,0.271,0.882,0.763,1.177c0.313,0.187,0.498,0.463,0.541,0.798c0.02,0.168,0.004,0.344-0.043,0.522
		c0.84-0.036,1.319-0.207,1.7-0.588c0.625-0.627,1.218-0.672,2.115-0.672c0.147,0,0.579-0.346,1.163-1.655
		c0.15-0.336,0.338-0.819,0.466-1.182c-0.041,0.014-0.082,0.028-0.129,0.031c-0.49,0.032-0.952-0.974-0.992-1.507h-1.644
		C87.293,22.097,86.797,22.544,86.359,22.94z"/>
	<path fill="#606060" d="M49.69,16.744c-0.181,0.344-0.493,0.678-0.804,0.989c-0.04,0.04-0.047,0.072-0.046,0.109
		c0.01,0.342,0.728,0.982,1.204,1.405c0.198,0.175,0.383,0.341,0.533,0.491c0.683,0.682-0.186,1.617-0.821,2.299
		c-0.216,0.234-0.421,0.454-0.525,0.616c-0.045,0.071-0.091,0.139-0.135,0.206c-0.394,0.595-0.535,0.856-0.055,1.336
		c0.364,0.362,0.895,0.453,1.458,0.549c0.439,0.074,0.892,0.151,1.286,0.366c0.762,0.415,0.592,1.402,0.444,2.273
		c-0.058,0.337-0.113,0.656-0.113,0.919c0,0.674,0.501,1.493,0.903,2.152c0.121,0.2,0.236,0.388,0.332,0.562
		c0.316,0.574,0.967,1.994,0.186,2.775c-0.552,0.553-0.767,1.146-0.767,2.117c0,0.82-0.431,1.086-0.907,1.205
		c0.432,0.234,0.884,0.589,1.31,1.126c0.086,0.108,0.167,0.213,0.246,0.314c0.732,0.943,1.099,1.416,2.224,1.203
		c0.458-0.087,0.871-0.276,1.269-0.458c0.769-0.351,1.564-0.715,2.311,0.032c0.429,0.429,0.88,0.866,1.27,1.078
		c0.438,0.239,0.649,0.122,0.812-0.041c0.18-0.179,0.351-0.501,0.549-0.874c0.463-0.869,1.096-2.061,2.484-2.467
		c1.315-0.385,2.19-0.22,3.344,0.626c1.126,0.826,1.735,1.092,2.589,0.599c1.049-0.604,2.658-1.254,3.987-1.256
		c-0.11-0.382-0.067-0.717,0.468-1.253c0.322-0.324,0.621-0.718,0.91-1.1c0.608-0.805,1.184-1.564,2.01-1.766
		c0.345-0.084,0.604-0.182,0.816-0.321C77.425,31.812,76.559,30,75.91,28.64c-0.268-0.556-0.495-1.036-0.678-1.322
		c-0.605-0.952-1.353-1.113-2.793-1.113c-1.194,0-2.365-1.42-3.309-2.56c-0.235-0.285-0.459-0.556-0.659-0.775
		c-1.044,0.856-1.946,1.772-2.46,2.294c-0.083,0.085-0.155,0.157-0.215,0.217c-0.509,0.51-1.102,1.011-1.909,1.011
		c-0.358,0-0.759-0.098-1.213-0.339c-1.24-0.656-0.642-1.99-0.246-2.874c0.113-0.253,0.22-0.491,0.269-0.67
		c0.151-0.552-0.699-1.136-1.206-1.485c-0.099-0.069-0.185-0.128-0.257-0.182c-0.21-0.159-0.686-0.382-1.146-0.598
		c-0.498-0.234-1.013-0.476-1.307-0.686c-0.412-0.295-0.383-0.75-0.36-1.117c0.019-0.288,0.036-0.561-0.104-0.799
		c-0.411-0.698-0.846-1.776-1.082-2.682c-0.164-0.626-0.661-1.289-1.065-1.419c-0.143-0.045-0.264-0.022-0.379,0.074
		c-0.356,0.296-0.711,0.409-1.055,0.334c-0.429-0.093-0.793-0.462-1.112-1.126c-0.344-0.717-0.239-2.48-0.129-3.843
		c-1.012,0.521-2.117,1.688-2.551,2.436c-0.437,0.754-1.632,2.128-2.61,3.037c0.454,0.379,0.989,0.846,1.241,1.098
		C49.799,15.771,49.999,16.158,49.69,16.744z"/>
	<path fill="#606060" d="M87.583,10.982c-1.022,0.176-1.534,0.324-2.104,1.001c-0.293,0.349-0.58,1.142-0.857,1.909
		c-0.279,0.769-0.543,1.496-0.85,1.903c-0.209,0.279-0.377,0.683-0.553,1.111c-0.273,0.673-0.498,1.138-0.783,1.454
		c-0.053,0.059-0.119,0.097-0.179,0.146l2.399,5.025c0.703-0.484,1.914-1.512,2.719-1.953l1.938-0.013
		c0.172-0.306,0.472-0.542,0.756-0.542c0.437,0,1.461-0.186,1.65,0.094c0.186,0.28,0.092,1.12,0.715,1.182
		c0.621,0.062,0.838-1.12,1.272-1.68c0.438-0.559,0.467-0.963,0.22-1.492c-0.248-0.528-0.654-0.932-1.492-1.088
		c-0.84-0.155-1.681-1.492-2.426-2.052c-0.748-0.559-1.432-2.736-1.308-3.42c0.125-0.684,0.28-1.275,0.592-1.431
		c0.31-0.156,0.965,0.342,1.149-0.124c0.018-0.045,0.018-0.092,0.016-0.14C89.486,10.861,88.24,10.869,87.583,10.982z"/>
	<path fill="#606060" d="M54.109,12.592c0.236,0.492,0.494,0.782,0.744,0.836c0.176,0.038,0.377-0.037,0.601-0.223
		c0.258-0.215,0.563-0.275,0.884-0.172c0.648,0.209,1.23,1.075,1.417,1.792c0.225,0.863,0.637,1.887,1.025,2.546
		c0.222,0.379,0.198,0.781,0.177,1.103c-0.024,0.374-0.018,0.538,0.138,0.649c0.255,0.181,0.747,0.413,1.224,0.637
		c0.506,0.238,0.984,0.463,1.239,0.654c0.064,0.047,0.145,0.104,0.24,0.169c0.624,0.43,1.668,1.148,1.418,2.065
		c-0.06,0.22-0.174,0.477-0.296,0.748c-0.462,1.033-0.733,1.794,0.008,2.186c1.161,0.614,1.816,0.102,2.496-0.577
		c0.059-0.059,0.13-0.131,0.212-0.215c0.938-0.951,3.132-3.18,5.215-4.094c0.723-0.316,1.357-0.526,1.918-0.711
		c1.142-0.376,1.896-0.624,2.321-1.432c0.642-1.213,1.89-1.744,3.339-1.423c0.406,0.091,0.873,0.314,1.365,0.55
		c0.745,0.357,1.592,0.762,1.993,0.532c0.418-0.238,0.681-0.884,0.938-1.508c0.181-0.439,0.367-0.895,0.617-1.229
		c0.258-0.343,0.52-1.065,0.773-1.765c0.307-0.847,0.598-1.649,0.951-2.07c0.705-0.836,1.387-1.005,2.423-1.184
		c0.614-0.105,1.669-0.168,2.565-0.172c-0.261-0.205-0.588-0.361-0.8-0.392c-0.435-0.062-1.803-0.124-2.271-0.466
		c-0.465-0.341,0.842-0.901,1.555-0.964c0.715-0.062,0.684,0.156,1.523,0.125c0.842-0.031,1.804-0.466,1.836-0.746
		c0.031-0.28-1.461,0.093-1.866-0.063c-0.404-0.156-0.343-0.964-0.81-0.995c-0.468-0.031-1.057-0.622-1.68-0.84
		c-0.623-0.218-1.059,0.373-1.96-0.094c-0.899-0.466-0.56-1.056-1.366-0.932c-0.811,0.124-0.777,0.466-1.556,0.559
		c-0.776,0.094-2.333,0-3.356-0.528c-1.027-0.529-0.562-1.803-0.469-2.425c0.094-0.622-0.87-0.218-1.431-0.218
		c-0.56,0-0.654,0.093-1.183,0.031c-0.527-0.063-0.84-0.622-1.586-0.653c-0.746-0.032-0.684,0.404-1.432,0.404
		c-0.745,0-1.275,0.249-1.928,0.715c-0.652,0.466-1.523,1.151-2.922,1.182c-1.4,0.031-3.95,0.902-4.509,1.368
		s-1.492,0.902-2.114,0.902s-1.182,0.03-1.804,0.217s-0.995-0.031-1.648-0.373c-0.653-0.343-0.777,0.465-1.306,1.119
		c-0.529,0.654-1.493,1.431-2.643,1.493c-0.087,0.005-0.183,0.035-0.275,0.058c-0.003,0.086-0.006,0.174-0.01,0.213
		C53.954,10.167,53.805,11.96,54.109,12.592z M76.146,6.251c0.297-0.544,1.187-0.891,1.483-0.248
		c0.295,0.644,0.444,0.743,1.236,0.396c0.791-0.347,1.487,0.653,1.632,1.187c0.195,0.742-0.691,1.434-1.387,1.83
		c-0.69,0.396-1.877,0.049-2.225-0.544C76.543,8.279,75.852,6.795,76.146,6.251z M71.744,7.289c0.842-0.198,2.667,0.086,3.165,0.94
		c0.347,0.594,0.446,0.791,0.149,1.285c-0.299,0.496-1.287,0.594-1.533,0.198c-0.248-0.396-0.692-0.198-1.533,0
		c-0.842,0.199-1.484-0.148-1.583-0.939S70.902,7.487,71.744,7.289z"/>
	<path fill="#606060" d="M32.172,68.278c0.601-0.607,1.348-1.363,2.241-1.363c0.563,0,1.173,0.308,1.763,0.604
		c0.378,0.189,0.768,0.386,1.113,0.481c0.486,0.135,0.945,0.262,1.22,0.083c0.196-0.127,0.333-0.431,0.404-0.904
		c0.485-3.191,0.916-4.013,2.304-4.404c1.365-0.385,4.346,1.101,6.002,2.021l0.028,0.016c1.589,0.882,1.589,0.882,3.065,1.045
		l0.187,0.021c0.158,0.018,0.304,0.049,0.439,0.092c0.707-1.372,0.801-2.777,0.801-3.861c0-1.102,0.151-1.645,1-2.494
		c0.361-0.362,0.58-0.967,0.79-1.551c0.223-0.622,0.435-1.21,0.823-1.599c0.645-0.646,1.95-3.32,1.114-4.156
		c-0.393-0.392-0.901-0.634-1.393-0.867c-0.707-0.335-1.439-0.682-1.81-1.475c-0.318-0.678-0.323-1.233-0.328-1.77
		c-0.005-0.487-0.009-0.948-0.251-1.502c-0.518-1.184-1.008-1.674-1.75-2.416c-0.692-0.692-0.704-1.567-0.035-2.6
		c0.355-0.55,0.401-1.763-0.041-2.205c-0.298-0.298-0.538-0.683-0.77-1.057c-0.168-0.269-0.328-0.526-0.495-0.727
		c-0.292,0.127-0.569,0.259-0.795,0.366c-0.176,0.084-0.328,0.156-0.451,0.209c-0.595,0.26-1.705,0.745-3.735,0.905
		c-1.906,0.15-3.674-0.13-5.095-0.356l-0.192-0.03c-0.873-0.138-1.77,0.468-2.718,1.109c-0.494,0.334-1.004,0.679-1.542,0.941
		c-0.485,0.237-0.911,0.325-1.29,0.325c-0.503,0-1.007-0.157-1.389-0.329c-0.021,0.058-0.04,0.124-0.063,0.176
		c-0.426,0.96-0.906,1.76-1.173,2.879c-0.266,1.12-0.426,2.293-0.266,3.039c0.159,0.747,0.746,1.547,0.053,2.506
		c-0.693,0.96-0.693,2.72-0.693,3.733c0,1.012,0,2.186-0.906,2.985c-0.906,0.8-0.213,4.692-0.213,5.972
		c0,1.279,0.214,2.079,1.12,3.039c0.906,0.96,1.386,2.186,1.386,3.359c0,0.182,0.001,0.353,0.002,0.526
		c0.652-0.108,1.079-0.308,1.402-0.63C32.08,68.37,32.125,68.324,32.172,68.278z"/>
	<path fill="#606060" d="M33.831,40.355c0.504-0.245,0.998-0.579,1.476-0.903c1.038-0.702,2.019-1.365,3.1-1.194l0.192,0.03
		c1.393,0.221,3.127,0.496,4.97,0.351c1.94-0.153,2.996-0.614,3.563-0.862c0.115-0.051,0.263-0.121,0.435-0.203
		c0.752-0.356,1.888-0.895,2.63-0.895c0.179,0,0.404,0.015,0.657,0.066c0.158-0.033,0.311-0.055,0.458-0.076
		c0.686-0.098,0.923-0.162,0.923-0.761c0-1.101,0.277-1.847,0.923-2.494c0.43-0.43,0.14-1.388-0.275-2.142
		c-0.09-0.164-0.202-0.347-0.32-0.541c-0.437-0.715-0.98-1.606-0.98-2.43c0-0.308,0.058-0.649,0.12-1.009
		c0.15-0.868,0.224-1.5-0.173-1.716c-0.316-0.172-0.706-0.238-1.12-0.308c-0.62-0.106-1.262-0.214-1.745-0.698
		c-0.808-0.807-0.385-1.444-0.012-2.007c0.042-0.064,0.086-0.13,0.129-0.198c0.129-0.203,0.35-0.441,0.584-0.692
		c0.287-0.308,0.612-0.657,0.791-0.97c0.231-0.401,0.105-0.528,0.044-0.588c-0.139-0.14-0.32-0.301-0.511-0.47
		c-0.672-0.598-1.366-1.216-1.382-1.788c-0.005-0.19,0.065-0.364,0.203-0.501c0.28-0.281,0.56-0.58,0.708-0.861
		c0.167-0.317,0.09-0.46-0.017-0.568c-0.247-0.246-0.825-0.741-1.273-1.113c-0.119,0.1-0.236,0.195-0.34,0.27
		c-0.995,0.715-2.456,1.275-3.296,1.182c-0.839-0.094-1.555-0.218-1.99-0.063c-0.435,0.156-1.617,0.778-2.363,0.934
		c-0.747,0.155-0.28,0.621-0.56,1.057c-0.28,0.435-0.155,1.181,0.56,1.647c0.715,0.467,0.653,1.4,0.28,1.773
		c-0.374,0.373-1.403,0.422-1.959,0.839c-0.797,0.597-1.763,0.15-2.567,0.105c-0.799-0.052-2.322,0.172-2.559,0.747
		c-0.373,0.907,0.533,0.853,1.546,1.28c1.013,0.426-0.106,1.492-0.266,2.399c-0.161,0.906-0.214,1.546-1.12,1.706
		c-0.906,0.16-1.279,0.694-2.026,1.28c-0.746,0.586-2.133,1.44-3.359,1.706c-1.226,0.267-2.239,1.12-2.346,2.346
		c-0.106,1.227,1.547,1.28,2.506,1.28c0.96,0,1.546,0,2.453,0.639c0.907,0.641,0.906,0.374,1.12,1.227
		c0.171,0.683,0.133,2.109-0.106,3.146C32.142,40.599,32.876,40.82,33.831,40.355z"/>
	<path fill="#606060" d="M103.145,65.139c0,0.347,0.053,0.739,0.111,1.152c0.127,0.901,0.26,1.832-0.148,2.534
		c-0.543,0.936-1.68,1.71-2.768,1.882c-0.375,0.059-0.611,0.168-0.71,0.323c-0.077,0.124-0.077,0.304-0.003,0.552
		c0.195,0.629-0.256,0.92-0.586,1.134c-0.141,0.091-0.288,0.184-0.402,0.301c-0.266,0.265-0.516,0.916-0.4,1.194
		c0.016,0.037,0.041,0.104,0.214,0.104c0.483,0,0.657-0.141,0.979-0.397c0.174-0.141,0.373-0.301,0.661-0.468
		c0.489-0.281,0.896-0.213,1.149-0.107c0.322,0.135,0.598,0.417,0.76,0.768c0.285-0.051,0.598,0.012,0.973,0.102
		c0.269,0.064,0.573,0.137,0.944,0.175c0.706,0.07,1.472,0.3,2.211,0.524c0.838,0.252,1.703,0.513,2.414,0.513
		c0.778,0,1.222-0.659,1.735-1.423c0.279-0.415,0.568-0.845,0.943-1.219c0.82-0.822,2.496-1.21,3.842-1.522
		c0.139-0.031,0.34-0.074,0.502-0.109c-0.063-0.303-0.105-0.625-0.096-0.998c0.032-1.12,0.527-1.68,0.029-2.457
		c-0.496-0.779-2.736-0.84-3.791-1.058c-1.057-0.218-2.146-1.057-2.365-1.804c-0.217-0.747,0.374-1.555-0.186-2.146
		c-0.561-0.59-2.021,0.217-2.768,0.311c-0.451,0.057-0.933-0.271-1.375-0.669c-0.152,0.178-0.338,0.393-0.457,0.53
		C103.831,63.684,103.145,64.463,103.145,65.139z"/>
	<path fill="#606060" d="M111.598,73.16c-0.336,0.337-0.609,0.746-0.877,1.141c-0.55,0.815-1.115,1.657-2.179,1.657
		c-0.792,0-1.692-0.272-2.567-0.535c-0.715-0.216-1.455-0.439-2.106-0.504c-0.411-0.041-0.748-0.122-1.021-0.188
		c-0.729-0.176-0.977-0.235-1.494,0.651c-0.199,0.336-0.346,0.656-0.478,0.938c-0.263,0.572-0.474,1.023-0.907,1.169
		c-0.089,0.029-0.183,0.044-0.281,0.044c-0.244,0-0.525-0.089-0.867-0.271c-0.952-0.511-1.305-1.021-1.645-1.515
		c-0.178-0.259-0.363-0.527-0.645-0.807c-0.695-0.694-1.573-0.46-2.344-0.185c-0.297,0.107-0.647,0.027-1.015-0.23
		c-0.575-0.406-1.173-1.265-1.173-2c0-0.295,0.059-0.583,0.115-0.863c0.006-0.041,0.016-0.082,0.023-0.122
		c-1.279,0.363-1.555,0.879-1.555,1.531c0,0.233,0.016,0.449,0.036,0.658c0.058,0.691,0.114,1.345-0.601,2.062
		c-0.75,0.749-1.383,2.535-1.383,3.899c0,0.656,0.196,1.233,0.391,1.792c0.191,0.552,0.389,1.124,0.389,1.76
		c0,0.597,0.212,0.884,0.459,1.217c0.205,0.274,0.438,0.585,0.525,1.072c0.135,0.732,0.076,1.323,0.033,1.754
		c-0.006,0.074-0.013,0.143-0.021,0.208c0.556,0.105,1.048,0.131,1.485,0.154c0.861,0.045,1.604,0.084,2.234,0.713
		c0.873,0.876,1.236,1.037,2.094,0.506c0.504-0.312,1.11-0.544,1.646-0.748c0.581-0.221,1.128-0.43,1.373-0.675
		c0.227-0.225,0.422-0.574,0.633-0.945c0.256-0.455,0.521-0.925,0.898-1.304c0.107-0.108,0.214-0.224,0.328-0.348
		c0.576-0.632,1.297-1.418,2.265-0.884c0.271,0.148,0.521,0.342,0.767,0.53c0.76,0.585,1.112,0.781,1.538,0.355
		c0.285-0.287,0.479-0.808,0.654-1.267c0.229-0.616,0.431-1.149,0.86-1.243c0.252-0.054,0.513,0.055,0.789,0.334
		c0.72,0.719,0.803,1.392,0.894,2.104c0.056,0.433,0.106,0.881,0.31,1.403c0.235,0.625,0.525,1.003,0.816,1.066
		c0.238,0.051,0.473-0.119,0.623-0.27c0.229-0.229,0.533-0.312,0.854-0.234c0.672,0.164,1.258,0.961,1.469,1.628
		c0.236,0.748,0.869,0.939,1.481,1.124c0.044,0.013,0.085,0.026,0.122,0.038c0.244,0.074,0.73,0.152,1.139,0.202
		c0-0.017,0-0.031,0-0.048c0-0.902-0.188-1.306,0.375-2.146c0.559-0.84,0.899-1.026,1.459-1.524s0.901-1.337,1.15-1.772
		c0.249-0.436,1.184-0.281,1.059-0.623c-0.125-0.341-1.059-0.714-2.084-1.647c-1.025-0.933-1.709-2.084-1.865-3.079
		s0.373-3.296,0.684-4.26c0.311-0.964,0.189-1.182-0.249-1.897c-0.204-0.337-0.385-0.685-0.521-1.072
		c-0.168,0.039-0.381,0.087-0.512,0.117C113.904,72.078,112.313,72.446,111.598,73.16z"/>
	<path fill="#606060" d="M82.298,125.183c-0.126,0.126-0.161,0.379-0.194,0.624c-0.047,0.33-0.096,0.671-0.369,0.866
		c-0.176,0.126-0.399,0.159-0.688,0.104c-0.889-0.171-1.773-1.21-2.361-1.899c-0.143-0.168-0.268-0.313-0.352-0.398
		c-0.297-0.298-1.039-0.468-2.036-0.468c-0.058,0-0.116,0.001-0.179,0.001c-0.828,0.012-1.961,0.027-3.127-1.762
		c-0.51-0.781-0.967-1.196-1.354-1.238c-0.242-0.024-0.479,0.093-0.771,0.385c-0.582,0.584-3.106,2.299-4.278,2.505
		c-0.702,0.122-1.629-0.034-2.447-0.172c-0.452-0.077-0.878-0.148-1.149-0.148c-0.581,0-2.121,0.44-3.184,0.884
		c0.006,0.018,0.013,0.036,0.019,0.056c0.263,0.799,0.491,1.487,1.554,1.904c0.592,0.233,0.901,0.497,0.972,0.837
		c0.099,0.476-0.311,0.886-0.708,1.282c-0.109,0.11-0.229,0.204-0.354,0.304c-0.598,0.477-1.418,1.128-1.75,4.166
		c-0.256,2.338,0.686,5.275,2.8,8.732l0.031,0.051c0.143,0.232,0.268,0.459,0.377,0.658c0.392,0.707,0.597,1.051,1.002,1.051
		c0.856,0,1.536,0.678,2.081,1.223c0.131,0.133,0.244,0.266,0.353,0.396c0.335,0.394,0.575,0.679,1.065,0.679
		c0.653,0,1.048,0.555,1.467,1.143c0.226,0.318,0.459,0.645,0.758,0.943c0.792,0.793,0.518,1.975-0.753,3.246
		c-0.091,0.09-0.132,0.184-0.129,0.287c0.013,0.417,0.653,0.982,1.036,1.321c0.121,0.104,0.226,0.196,0.306,0.276
		c0.488,0.49,1.787,1.787,2.438,3.269c0.375,0.854,1.503,2.2,2.498,3.3c1.091-0.018,1.581-0.281,2.055-0.537
		c0.41-0.225,0.836-0.453,1.572-0.453c0.732,0,1.279,0.266,1.721,0.48c0.564,0.273,0.766,0.342,1.018,0.093
		c0.682-0.681,1.55-0.823,2.554-0.989c0.187-0.031,0.375-0.063,0.569-0.099c0.74-0.134,0.967-0.444,1.344-0.962
		c0.193-0.271,0.418-0.577,0.755-0.915c1.185-1.185,2.317-1.879,3.565-2.19c1.387-0.348,2.039-0.817,2.42-1.738
		c0.225-0.545,2.584-5.025,5.089-7.346c-0.611-0.425-0.876,0.135-3.421-1.701c-2.676-1.928-6.157-5.785-8.055-8.986
		c-1.787-3.021-2.222-6.87-2.136-8.472C83.378,125.446,82.508,124.973,82.298,125.183z"/>
	<path fill="#606060" d="M98.438,40.442c-0.092,0.029-0.193,0.069-0.301,0.111c-0.492,0.191-1.162,0.451-1.604,0.011
		c-0.053-0.053-0.245-0.166-0.893-0.073c-0.382,0.055-0.849,0.169-1.459,0.357c0.039,0.129,0.077,0.255,0.116,0.376
		c0.157,0.498,0.291,0.928,0.291,1.303c0,0.407-0.271,0.71-0.487,0.954c-0.092,0.1-0.242,0.268-0.238,0.327
		c0,0,0.005,0.015,0.031,0.04c0.314,0.317,0.447,0.787,0.342,1.199c-0.086,0.319-0.307,0.55-0.61,0.632
		c-0.153,0.042-0.335,0.065-0.542,0.091c-0.55,0.069-1.236,0.155-1.762,0.681c-0.309,0.307-0.239,0.714-0.17,1.146
		c0.074,0.429,0.173,1.017-0.42,1.239c-0.433,0.162-0.77,0.596-1.16,1.099c-0.236,0.303-0.502,0.647-0.822,0.967
		c-0.234,0.235-0.34,0.447-0.309,0.63c0.047,0.284,0.41,0.593,1.078,0.92c0.934,0.455,1.385,1.439,1.385,3.009
		c0,1.249-0.434,3.019-1.658,4.244c-1.119,1.117-0.555,3.975,0.046,5.129c0.499,0.956,1.856,2.93,2.665,4.11
		c0.148,0.212,0.277,0.402,0.387,0.562c0.581,0.853,0.43,1.601,0.299,2.261c-0.055,0.266-0.104,0.516-0.104,0.758
		c0,0.477,0.441,1.209,0.945,1.564c0.209,0.147,0.402,0.207,0.525,0.163c0.618-0.221,1.908-0.682,2.9,0.31
		c0.313,0.315,0.513,0.603,0.706,0.882c0.332,0.482,0.616,0.897,1.454,1.347c0.332,0.177,0.578,0.242,0.729,0.191
		c0.216-0.073,0.386-0.432,0.595-0.888c0.133-0.293,0.287-0.625,0.498-0.984c0.219-0.372,0.422-0.62,0.623-0.777
		c-0.104-0.229-0.279-0.417-0.479-0.5c-0.21-0.087-0.437-0.061-0.679,0.078c-0.25,0.146-0.436,0.292-0.596,0.421
		c-0.343,0.277-0.641,0.516-1.313,0.516c-0.46,0-0.643-0.272-0.706-0.433C97.52,73.872,97.9,73,98.258,72.639
		c0.157-0.156,0.335-0.27,0.491-0.372c0.364-0.235,0.437-0.307,0.369-0.529c-0.125-0.404-0.104-0.728,0.06-0.991
		c0.182-0.296,0.536-0.482,1.077-0.567c0.794-0.125,1.869-0.722,2.39-1.622c0.315-0.542,0.198-1.381,0.084-2.192
		c-0.059-0.414-0.117-0.842-0.117-1.227c0-0.877,0.75-1.729,1.547-2.631c0.123-0.138,0.314-0.368,0.469-0.549
		c-0.146-0.147-0.286-0.292-0.413-0.419c-0.591-0.591-1.71-1.182-1.864-2.301c-0.156-1.12-0.654-1.835-1.432-2.705
		c-0.775-0.871-0.962-0.84-1.148-1.524c-0.265-0.962-0.809-1.554-1.244-2.487c-0.437-0.933-0.963-1.96-0.777-5.504
		c0.201-3.801,1.078-5.431,1.777-6.325C99.084,40.474,98.682,40.364,98.438,40.442z"/>
	<path fill="#606060" d="M114.273,90.002c-0.641-0.193-1.518-0.457-1.836-1.473c-0.188-0.591-0.686-1.172-1.088-1.271
		c-0.141-0.034-0.252-0.004-0.351,0.094c-0.442,0.443-0.849,0.47-1.106,0.413c-0.492-0.104-0.897-0.574-1.211-1.397
		c-0.221-0.582-0.279-1.084-0.336-1.526c-0.084-0.672-0.148-1.203-0.738-1.792c-0.203-0.203-0.289-0.192-0.299-0.19
		c-0.148,0.033-0.348,0.56-0.479,0.909c-0.188,0.511-0.408,1.089-0.774,1.458c-0.801,0.799-1.599,0.184-2.24-0.311
		c-0.229-0.175-0.465-0.356-0.699-0.485c-0.557-0.309-0.981,0.088-1.612,0.778c-0.112,0.122-0.229,0.248-0.344,0.364
		c-0.328,0.327-0.574,0.766-0.813,1.189c-0.229,0.403-0.443,0.784-0.72,1.061c-0.326,0.325-0.897,0.542-1.56,0.795
		c-0.537,0.206-1.094,0.417-1.558,0.703c-1.243,0.772-1.896,0.271-2.75-0.582c-0.485-0.485-1.071-0.516-1.884-0.56
		c-0.521-0.027-1.105-0.056-1.796-0.21c-1.317-0.293-1.905,0.412-2.377,0.979c-0.104,0.122-0.197,0.236-0.293,0.333
		c-0.07,0.07-0.169,0.161-0.281,0.266c-0.741,0.698-2.289,2.146-2.614,3.657c-0.318,1.467-3.154,6.416-4.849,9.372
		c-0.479,0.836-0.856,1.497-1.063,1.876c-0.897,1.654-1.129,2.446-1.129,3.855c0,0.32,0.071,0.549,0.223,0.696
		c0.316,0.315,1.015,0.307,1.754,0.3c0.117-0.001,0.234-0.002,0.354-0.002c1.409,0,3.49,0.559,4.393,1.463
		c0.439,0.44,0.549,1.131,0.303,1.947c-0.182,0.607-0.553,1.253-0.943,1.644c-0.132,0.133-0.256,0.274-0.375,0.411
		c-0.474,0.543-0.965,1.102-1.938,1.102c-0.979,0-1.62,0.643-2.433,1.456c-0.639,0.637-1.865,0.917-3.054,1.188
		c-0.511,0.117-0.993,0.227-1.407,0.361c-0.27,0.086-0.423,0.197-0.453,0.328c-0.104,0.423,0.758,1.283,1.326,1.852
		c0.365,0.366,0.528,0.679,0.51,0.984c-0.026,0.415-0.377,0.686-0.746,0.972c-0.092,0.073-0.187,0.145-0.278,0.223
		c0.502,0.261,0.97,0.254,1.405,0.249c0.063,0,0.125-0.002,0.186-0.002c0.814,0,1.896,0.109,2.413,0.625
		c0.101,0.098,0.224,0.244,0.379,0.427c0.507,0.594,1.354,1.588,2.058,1.722c0.133,0.026,0.23,0.021,0.278-0.013
		c0.087-0.063,0.12-0.299,0.15-0.507c0.045-0.316,0.095-0.676,0.348-0.927c0.455-0.457,1.327-0.062,2.067,0.375
		c0.207-1.321,0.789-2.773,1.507-3.375c0.776-0.653,0.966-0.996,1.12-1.649c0.156-0.652,0.9-0.776,1.648-0.901
		c0.743-0.125,1.646-1.212,2.176-1.585c0.526-0.374,1.617-0.28,1.646-0.777c0.033-0.499,0.343-1.059,0.935-0.934
		s1.09,0.155,1.928-0.623c0.84-0.777,1.182-1.74,2.146-2.736c0.963-0.994,2.52-1.15,3.141-1.243
		c0.621-0.093,1.369-0.125,1.521-0.623c0.157-0.496,0.313-1.211,0.872-1.585c0.561-0.373,0.25-1.305,0.745-1.99
		c0.499-0.685,1.215-0.312,2.022-0.312c0.809,0,1.305-0.901,1.521-1.71c0.219-0.809,0.157-1.586,0.561-2.426
		c0.404-0.838,1.931-1.647,2.334-1.741c0.403-0.095,0.775-0.467,0.775-0.996c0-0.528,0.529-1.087,0.872-1.523
		s0.994-1.275,0.994-1.959s-0.062-1.804,0.312-2.549c0.373-0.747,1.273-1.245,2.084-2.052c0.611-0.612,0.777-1.047,0.822-1.614
		c-0.443-0.056-0.984-0.148-1.275-0.239C114.355,90.026,114.313,90.014,114.273,90.002z"/>
	<path fill="#606060" d="M94.145,31.799c0.314,0.629,0.127,1.339-0.092,2.16c-0.094,0.364-0.201,0.775-0.279,1.22
		c-0.25,1.451,0.029,3.602,0.147,4.52c0.029,0.216,0.073,0.429,0.122,0.636c1.635-0.501,2.475-0.542,2.871-0.146
		c0.191,0.194,0.656,0.014,1.029-0.131c0.115-0.046,0.226-0.088,0.33-0.122c0.401-0.13,0.988,0.006,1.613,0.331
		c0.149-0.165,0.28-0.303,0.377-0.432c0.563-0.746,1.215-0.995,2.084-0.995c0.873,0,1.491-1.088,2.334-1.648
		c0.838-0.56,2.207-0.746,3.232-1.182c1.025-0.435,1.15-1.088,1.307-2.146c0.154-1.058,1.397-3.11,1.771-4.043
		c0.374-0.933,0.809-1.742,1.678-2.83c0.872-1.088,1.275-2.021,2.055-3.327c0.775-1.306,2.768-2.208,3.297-2.83
		c0.527-0.622,0.403-1.368,0.062-1.71c-0.341-0.342-0.715-1.648-0.776-2.425c-0.063-0.778-1.182-1.68-1.242-2.706
		c-0.063-1.026,0.621-1.368,0.062-2.021c-0.56-0.653-0.935-0.373-1.646,0.125c-0.715,0.497-1.367,0.746-2.396,0.746
		c-1.025,0-0.87,0.498-0.994,1.338c-0.125,0.84-1.087,1.275-1.74,2.021c-0.652,0.746-1.306,1.026-2.113,1.648
		c-0.811,0.622-1.711,1.462-2.955,1.99c-1.244,0.529-2.331,0.124-2.954,0.342c-0.62,0.218-0.716,1.866-0.869,2.426
		c-0.155,0.561-1.522,1.772-2.364,2.395c-0.553,0.409-1.373,0.641-2.189,0.762c-0.274,1.313-0.729,3.176-1.131,3.778
		C94.15,30.471,93.831,31.173,94.145,31.799z"/>
	<path fill="#606060" d="M88.662,26.944c-0.869,0-1.27,0.047-1.739,0.515c-0.594,0.592-1.319,0.737-2.286,0.751
		c-0.305,0.594-0.814,1.162-1.176,1.524c-0.367,0.366-0.652,0.503-0.895,0.505c0.121,0.63,0.597,0.981,1.549,1.171
		c1.255,0.251,2.339,0.468,3.289,1.948c0.871,1.357,1.478,1.652,2.238,1.92c0.721,0.256,0.707,0.727,0.693,1.072
		c-0.005,0.162-0.011,0.316,0.053,0.454c0.049,0.107,0.139,0.172,0.277,0.197c0.268,0.048,0.621-0.07,0.822-0.275
		c0.43-0.429,1.095-0.489,1.654-0.497c0.01-0.4,0.041-0.788,0.104-1.14c0.08-0.469,0.191-0.893,0.29-1.266
		c0.206-0.776,0.354-1.335,0.13-1.785c-0.475-0.949,0.091-1.938,0.659-2.789c0.337-0.507,0.765-2.186,1.032-3.419
		c-0.236,0.022-0.469,0.038-0.688,0.044c-1.119,0.031-1.99-0.995-2.457-1.772c-0.467-0.778-0.652-1.244-1.057-1.244
		c-0.049,0-0.094,0.011-0.135,0.03c-0.119,0.537-0.397,1.38-0.713,2.084C89.73,26.28,89.176,26.944,88.662,26.944z"/>
	<path fill="#606060" d="M72.736,42.683c-0.111,0.107-0.215,0.208-0.312,0.303c-0.514,0.515-1.177,0.895-1.762,1.231
		c-0.492,0.283-0.957,0.549-1.254,0.846c-0.08,0.079-0.116,0.148-0.106,0.203c0.046,0.283,0.843,0.684,1.425,0.976
		c0.146,0.075,0.299,0.151,0.443,0.227c0.412,0.215,0.913,0.392,1.443,0.58c0.898,0.318,1.828,0.647,2.382,1.199
		c0.892,0.892,0.173,2.869-0.271,3.785c0.752,0.066,1.453-0.109,2.084-0.266c0.478-0.12,0.932-0.234,1.359-0.234
		c0.852,0,1.938,0.309,3.229,0.917c0.334,0.156,0.646,0.428,0.949,0.69c0.559,0.483,0.948,0.788,1.311,0.64
		c0.486-0.201,0.633-0.85,0.763-1.422c0.056-0.238,0.104-0.463,0.179-0.653c0.037-0.098,0.125-0.328,0.348-0.363
		c0.205-0.034,0.335,0.122,0.419,0.225c0.028,0.033,0.075,0.089,0.103,0.11c0.014-0.006,0.041-0.023,0.082-0.065l1.459-1.458
		c0.604-0.604,1.557-0.705,2.271-0.715c0.377-0.478,0.75-0.911,1.264-1.103c0.145-0.053,0.168-0.136,0.083-0.651
		c-0.079-0.468-0.187-1.11,0.315-1.611c0.654-0.655,1.474-0.758,2.072-0.833c0.188-0.023,0.351-0.043,0.469-0.076
		c0.148-0.04,0.207-0.16,0.234-0.254c0.059-0.225-0.023-0.506-0.205-0.685c-0.42-0.42-0.041-0.845,0.188-1.099
		c0.174-0.194,0.353-0.395,0.353-0.598c0-0.293-0.121-0.687-0.267-1.143c-0.147-0.481-0.32-1.026-0.397-1.617
		c-0.08-0.631-0.236-1.826-0.254-3.006c-0.461,0.008-0.984,0.056-1.271,0.341c-0.276,0.274-0.694,0.441-1.08,0.441
		c-0.073,0-0.146-0.006-0.219-0.019c-0.311-0.056-0.547-0.234-0.67-0.5c-0.111-0.253-0.104-0.498-0.098-0.694
		c0.01-0.318,0.014-0.425-0.34-0.55c-0.977-0.344-1.632-0.769-2.512-2.135c-0.827-1.291-1.715-1.467-2.942-1.713
		c-1.319-0.263-1.959-0.878-2.007-1.93c-0.051-0.04-0.1-0.084-0.15-0.13c-0.158-0.144-0.322-0.292-0.551-0.373
		c-0.501-0.177-0.799,0.39-1.316,1.638L79.9,31.33c-0.525,1.265-0.928,1.766-2.135,2.061c-0.644,0.156-1.16,0.843-1.711,1.569
		c-0.301,0.396-0.611,0.805-0.959,1.154c-0.453,0.453-0.408,0.564-0.24,0.975c0.136,0.332,0.319,0.786,0.318,1.554
		C75.176,40.306,73.709,41.736,72.736,42.683z"/>
	<path fill="#606060" d="M31.121,104.415c0.444,0.03,0.995,0.064,1.787,0.577c0.498,0.322,1.008,0.781,1.501,1.225
		c0.853,0.768,1.736,1.561,2.237,1.33c0.335-0.157,0.344-0.297,0.361-0.555c0.022-0.323,0.051-0.763,0.826-0.996
		c0.625-0.187,1.535-0.697,2.338-1.147c0.65-0.365,1.264-0.71,1.715-0.882c0.309-0.12,0.664-0.219,1.04-0.325
		c0.873-0.243,1.861-0.52,2.657-1.136l0.192-0.149c1.182-0.918,2.802-2.177,4.751-2.627c0.958-0.22,1.611-0.634,1.746-1.106
		c0.054-0.184,0.015-0.36-0.107-0.481c-0.55-0.549-0.47-1.312,0.209-1.99c0.162-0.162,0.345-0.603,0.521-1.031
		c0.37-0.892,0.752-1.814,1.456-1.814c0.282,0,0.517,0.038,0.724,0.072c0.433,0.071,0.65,0.108,0.97-0.212
		c0.438-0.437,1.115-0.597,1.768-0.752c0.352-0.084,0.684-0.162,0.97-0.279c0.459-0.188,0.376-1.383,0.309-2.343
		c-0.026-0.372-0.052-0.757-0.052-1.098c0-0.473,0.114-0.932,0.214-1.337c0.219-0.886,0.297-1.325-0.327-1.609
		c-0.354-0.161-0.744-0.309-1.121-0.451c-1.056-0.4-1.967-0.745-2.172-1.359c-0.279-0.839-0.032-1.867,0.602-2.501
		c0.126-0.126,0.264-0.251,0.41-0.384c0.509-0.462,1.087-0.986,1.087-1.541c0-1.109,1.195-1.645,1.837-1.934
		c0.715-0.32,1.39-1.435,1.39-2.292c0-0.108,0.002-0.211,0.004-0.312c0.016-0.725,0.026-1.162-0.925-1.811
		c-0.535-0.365-1.114-0.489-1.625-0.6c-0.605-0.129-1.175-0.251-1.455-0.76c-0.159-0.29-0.2-0.613-0.238-0.899
		c-0.077-0.588-0.115-0.883-0.873-0.883c-1.419,0-2.441-0.141-3.146-0.846c-0.233-0.233-0.381-0.588-0.552-1
		c-0.322-0.775-0.687-1.654-1.709-1.767l-0.187-0.02c-1.569-0.174-1.599-0.184-3.266-1.11l-0.029-0.016
		c-2.655-1.475-4.748-2.213-5.599-1.974c-1.065,0.3-1.447,0.857-1.921,3.97c-0.098,0.638-0.308,1.054-0.642,1.271
		c-0.475,0.309-1.073,0.143-1.651-0.017c-0.395-0.109-0.81-0.317-1.21-0.519c-0.534-0.268-1.087-0.547-1.523-0.547
		c-0.67,0-1.332,0.668-1.863,1.205c-0.047,0.047-0.094,0.094-0.139,0.139c-0.441,0.442-1.006,0.678-1.769,0.792
		c0.019,0.746,0.073,1.472,0.255,2.347c0.267,1.279-0.533,2.772-1.066,3.252c-0.534,0.48-0.747,2.985-0.747,4.212
		c0,2.774,1.866,2.613,3.092,2.932c0.516,0.135,1.653,0.8,1.386,1.386c-0.266,0.587-1.599,2.133-1.759,3.039
		c-0.16,0.906-1.386,1.067-2.026,1.972c-0.64,0.906-0.694,3.039-0.8,4.106c-0.107,1.065-0.96,2.932-1.28,4.158
		c-0.319,1.226,0.747,3.891,0.747,4.799c0,0.422-0.154,0.854-0.385,1.251c0.732,0.206,1.553,0.456,2.125,1.027
		C30.496,104.376,30.745,104.393,31.121,104.415z"/>
	<path fill="#606060" d="M85.928,51.986c-0.156,0.157-0.32,0.233-0.486,0.225c-0.17-0.009-0.293-0.099-0.387-0.193
		c-0.039,0.133-0.074,0.29-0.111,0.454c-0.148,0.664-0.338,1.491-1.08,1.797c-0.135,0.056-0.264,0.08-0.393,0.08
		c-0.537,0-1.027-0.426-1.469-0.809c-0.275-0.238-0.559-0.486-0.827-0.611c-1.22-0.574-2.229-0.865-3.003-0.865
		c-0.363,0-0.785,0.106-1.232,0.217c-0.736,0.185-1.568,0.392-2.504,0.252c-0.697,0.869-3.432,2.861-6.058,4.724l-0.141,0.1
		c-1.121,0.795-1.174,1.185-1.174,1.859c0,0.222,0.046,0.472,0.093,0.738c0.116,0.643,0.247,1.371-0.181,2.072
		c-0.342,0.56-0.184,0.877,0.238,1.601c0.097,0.165,0.206,0.353,0.315,0.56c0.213,0.408,0.245,0.725,0.097,0.969
		c-0.264,0.436-0.969,0.436-1.858,0.436h-0.083c-0.547,0-0.682,0.198-0.869,0.47c-0.161,0.235-0.362,0.527-0.826,0.636
		c-0.982,0.231-3.02-0.541-4.05-1.196c-0.01-0.007-0.02-0.013-0.03-0.019c0.095,0.452,0.649,1.561,1.14,2.053
		c0.401,0.4,1.188,1.431,1.949,2.427c0.654,0.856,1.33,1.742,1.612,2.024c0.323,0.324,0.542,0.824,0.772,1.353
		c0.251,0.572,0.509,1.165,0.91,1.565c0.676,0.677,0.517,1.839,0.377,2.865c-0.052,0.381-0.101,0.741-0.101,1.034
		c0,0.887,0.27,1.571,0.848,2.149c0.513,0.513,1.37,1.371,2.396,1.371c1.021,0,1.807,0.895,2.438,1.614
		c0.15,0.173,0.294,0.337,0.422,0.464c0.205,0.205,0.391,0.424,0.568,0.635c0.389,0.459,0.755,0.894,1.283,1.143
		c0.455,0.214,1.607,0.458,2.623,0.673c0.787,0.166,1.527,0.323,1.904,0.457c1.6,0.569,2.033,0.37,2.146,0.259
		c0.336-0.338,0.878-0.327,1.267-0.166c0.358,0.149,0.572,0.411,0.572,0.701c0,0.225,0.438,1.718,0.757,2.808
		c0.146,0.506,0.298,1.021,0.428,1.476c0.584-1.388,1.875-2.6,2.547-3.23c0.107-0.101,0.203-0.189,0.267-0.254
		c0.081-0.078,0.169-0.186,0.262-0.298c0.472-0.567,1.168-1.404,2.597-1.213c0.006-0.051,0.01-0.104,0.017-0.16
		c0.042-0.423,0.093-0.948-0.029-1.607c-0.065-0.365-0.231-0.59-0.428-0.85c-0.265-0.357-0.565-0.762-0.565-1.535
		c0-0.545-0.174-1.05-0.355-1.586c-0.209-0.6-0.42-1.221-0.42-1.966c0-1.509,0.688-3.428,1.535-4.276
		c0.543-0.542,0.506-0.978,0.446-1.639c-0.018-0.22-0.038-0.447-0.038-0.703c0-1.346,1.067-1.833,2.172-2.105
		c0.021-0.371-0.043-0.748-0.322-1.159c-0.11-0.159-0.24-0.349-0.387-0.56c-0.869-1.267-2.184-3.181-2.697-4.166
		c-0.575-1.103-1.379-4.325,0.048-5.752c1.432-1.432,1.505-3.472,1.505-3.867c0-1.345-0.355-2.173-1.087-2.53
		c-0.854-0.418-1.29-0.834-1.371-1.311c-0.06-0.362,0.097-0.731,0.46-1.095c0.171-0.172,0.327-0.352,0.473-0.537
		c-0.475,0.042-1.088,0.167-1.459,0.538L85.928,51.986z"/>
	<path fill="#606060" d="M78.865,32.181c0.195-0.252,0.359-0.588,0.552-1.054l0.08-0.19c0.467-1.132,0.954-2.303,1.987-1.938
		c0.328,0.116,0.551,0.32,0.729,0.482c0.133,0.12,0.244,0.224,0.334,0.229c0.081,0.005,0.237-0.053,0.538-0.351
		c0.854-0.858,1.332-1.659,1.271-2.144c-0.02-0.173-0.109-0.303-0.285-0.407c-0.67-0.404-1.069-1.063-1.02-1.679
		c0.028-0.311,0.305-0.899,1.166-1.238c-0.052-0.202-2.162-4.517-2.396-5.124c-0.627,0.173-1.455-0.221-2.258-0.606
		c-0.467-0.222-0.902-0.433-1.252-0.511c-0.576-0.127-1.996-0.271-2.75,1.153c-0.527,0.996-1.408,1.287-2.627,1.688
		c-0.55,0.182-1.172,0.387-1.871,0.694c-0.726,0.318-1.472,0.81-2.17,1.352c0.203,0.224,0.423,0.49,0.653,0.769
		c0.825,0.998,1.954,2.366,2.896,2.366c1.347,0,2.44,0.1,3.242,1.36c0.199,0.313,0.436,0.806,0.709,1.378
		C77.04,29.765,77.912,31.593,78.865,32.181z"/>
	<path fill="#606060" d="M69.069,118.507c-0.109,0.846-0.049,2.164-0.006,3.129c0.008,0.159,0.015,0.309,0.02,0.447
		c0.62-0.406,1.16-0.809,1.408-1.058c0.259-0.258,0.663-0.594,1.2-0.538c0.563,0.059,1.138,0.542,1.748,1.478
		c0.281,0.429,0.549,0.738,0.812,0.959c0.138-0.123,0.278-0.232,0.407-0.331c0.285-0.221,0.529-0.411,0.541-0.586
		c0.008-0.134-0.114-0.333-0.354-0.574c-0.808-0.807-1.643-1.64-1.469-2.353c0.078-0.325,0.35-0.564,0.807-0.711
		c0.438-0.139,0.933-0.252,1.455-0.372c1.111-0.255,2.266-0.518,2.793-1.046c0.864-0.863,1.61-1.611,2.811-1.611
		c0.732,0,1.088-0.406,1.537-0.919c0.127-0.144,0.255-0.293,0.4-0.437c0.612-0.614,1.323-2.157,0.643-2.839
		c-0.771-0.77-2.735-1.307-4.016-1.307c-0.117,0-0.232,0.002-0.349,0.002c-0.854,0.009-1.661,0.017-2.136-0.455
		c-0.258-0.252-0.381-0.605-0.381-1.075c0-1.498,0.256-2.382,1.193-4.109c0.209-0.385,0.59-1.048,1.07-1.886
		c1.486-2.597,4.188-7.31,4.721-8.975c-0.142-0.562-0.398-1.432-0.646-2.277c-0.479-1.646-0.775-2.67-0.775-2.957
		c0-0.043-0.076-0.14-0.244-0.209c-0.223-0.092-0.531-0.104-0.685,0.051c-0.416,0.415-1.275,0.374-2.701-0.134
		c-0.343-0.121-1.067-0.274-1.835-0.437c-1.096-0.232-2.23-0.472-2.741-0.712c-0.635-0.299-1.057-0.799-1.465-1.281
		c-0.172-0.203-0.349-0.413-0.538-0.602c-0.139-0.141-0.288-0.31-0.447-0.49c-0.559-0.638-1.256-1.432-2.035-1.432
		c-1.248,0-2.203-0.956-2.772-1.527c-0.685-0.684-1.004-1.487-1.004-2.526c0-0.329,0.052-0.707,0.107-1.105
		c0.123-0.903,0.263-1.927-0.227-2.416c-0.122-0.124-0.233-0.26-0.335-0.406c-1.952-0.653-3.609,0.084-4.097,0.341
		c0,0.02,0,0.038,0,0.058c0,1.073-0.797,2.371-1.705,2.779c-0.913,0.411-1.522,0.814-1.522,1.447c0,0.791-0.671,1.399-1.263,1.936
		c-0.141,0.128-0.274,0.248-0.391,0.365c-0.555,0.555-0.658,1.403-0.473,1.955c0.125,0.374,1.043,0.722,1.854,1.029
		c0.385,0.146,0.783,0.297,1.153,0.464c1.055,0.48,0.826,1.407,0.624,2.223c-0.098,0.394-0.199,0.801-0.199,1.208
		c0,0.323,0.025,0.681,0.051,1.061c0.087,1.249,0.176,2.541-0.639,2.874c-0.324,0.133-0.693,0.22-1.049,0.304
		c-0.581,0.137-1.183,0.279-1.514,0.61c-0.514,0.512-0.96,0.439-1.433,0.362c-0.197-0.032-0.399-0.065-0.638-0.065
		c-0.348,0-0.704,0.857-0.963,1.485c-0.215,0.518-0.4,0.965-0.637,1.202c-0.329,0.33-0.633,0.811-0.209,1.236
		c0.259,0.259,0.35,0.635,0.244,1.007c-0.113,0.394-0.541,1.109-2.139,1.478c-1.835,0.425-3.401,1.641-4.544,2.529l-0.194,0.15
		c-0.149,0.116-0.304,0.22-0.461,0.314c0.307,0.147,0.671,0.343,1.067,0.555c1.04,0.557,2.334,1.251,3.024,1.251
		c0.632,0,1.738,0.083,2.807,0.164c1.027,0.077,1.997,0.15,2.521,0.15c0.795,0,1.326,0.331,1.887,0.683
		c0.283,0.178,0.576,0.361,0.925,0.516c0.448,0.199,0.802,0.074,1.144-0.049c0.349-0.125,0.785-0.281,1.169,0.104
		c0.49,0.489,0.204,0.983-0.025,1.38c-0.133,0.23-0.271,0.467-0.334,0.748c-0.164,0.721-0.027,2.108,0.791,2.925
		c0.823,0.823,1.407,1.155,2.499,1.419c1.111,0.268,1.698,0.662,2.165,1.456c0.325,0.552,1.161,1.571,2.233,1.876
		C68.456,116.737,69.252,117.08,69.069,118.507z"/>
	<path fill="#606060" d="M133.102,186.303c-0.593-0.561-2.053-1.369-2.303-2.271c-0.249-0.902,0.219-5.193,0.311-6.313
		c0.098-1.119-0.217-2.396-0.246-3.172c-0.03-0.777,0-1.525,0.437-2.645c0.437-1.118,0.029-3.17,0.218-3.948
		c0.186-0.778,0.744-1.556,0.869-2.146c0.125-0.594,0.032-2.304-0.027-2.646c-0.063-0.343-1.059-0.401-1.898-0.899
		s-2.113-1.244-2.829-1.742s-0.873-1.026-1.058-0.686c-0.186,0.344,0.934,1.025,1.586,1.493c0.654,0.466,1.431,0.965,1.242,1.462
		c-0.187,0.498-0.777-0.063-1.305,0.063c-0.529,0.125-1.682,0.311-2.676-0.063s-1.896-0.934-2.734-0.964
		c-0.84-0.032-1.492,0.62-1.648-0.249c-0.154-0.87-0.344-0.965-1.088-1.865c-0.747-0.902-0.436-1.43,0.373-1.646
		c0.811-0.217,1.369,0.496,2.303,0.899c0.93,0.403,2.361,0.622,2.361,0.28c0-0.344-1.275-0.746-2.176-1.09
		c-0.902-0.342-2.271-1.274-2.801-1.928c-0.527-0.651-0.527-0.651-0.592-1.492c-0.063-0.84-0.342-1.149-0.402-1.896
		c-0.063-0.745,0.219-1.805,0.498-2.551c0.278-0.746-0.996-2.705-1.617-3.575c-0.623-0.871-1.709-1.148-2.644-1.148
		s-1.06,0.559-1.522,0.526c-0.467-0.03-1.026-0.653-1.244-0.187c-0.217,0.467,0.527,1.273,0.869,1.959
		c0.342,0.684-0.031,0.994-0.776,1.646s-1.276,0.498-1.927,0.621c-0.653,0.125-1.867,1.119-2.551,1.555
		c-0.685,0.437-0.963,0-1.617-0.094c-0.653-0.093-0.592-0.716-0.936-1.554c-0.342-0.839-0.496-0.466-0.062-1.274
		c0.436-0.808,0.62-1.024,0.841-1.99c0.217-0.963,0.436-1.865,0.527-2.645c0.094-0.777,0.716-1.057,1.086-1.429
		c0.375-0.374,1.091-0.872,1.773-0.716c0.684,0.156,0.995,1.306,1.184,2.33c0.187,1.026,0.094,1.338,0.468,1.121
		c0.371-0.217,0.993-1.432,1.336-1.959c0.342-0.529,0.716-0.748,1.119-0.188c0.403,0.562,0.84-0.403,0.84-0.996
		c0-0.59,0.776-1.429,1.616-1.896c0.841-0.465,1.212-1.058,0.777-1.586c-0.436-0.527-1.059-0.652-2.117-1.397
		c-1.055-0.748-0.9-1.307-1.803-1.493c-0.9-0.187-1.212,0.497-2.236,0.527c-1.026,0.032-1.866-0.745-2.77-0.839
		c-0.9-0.094-1.367,0.622-1.367,1.462c0,0.839,0.03,2.954-0.156,3.823c-0.186,0.873,0.095,1.274,0.188,1.772
		c0.096,0.498-0.342,0.437-1.15,0.22c-0.806-0.22-1.521,0.497-2.236,1.117c-0.717,0.622-2.362,1.15-3.326,1.367
		c-0.779,0.178-1.452,0.175-2.044-0.121c-2.448,2.182-4.89,6.712-5.103,7.229c-0.517,1.252-1.485,1.728-2.783,2.051
		c-1.152,0.287-2.205,0.941-3.319,2.054c-0.308,0.31-0.515,0.599-0.701,0.853c-0.388,0.537-0.726,1.002-1.676,1.174
		c-0.201,0.037-0.394,0.067-0.579,0.099c-0.953,0.155-1.704,0.28-2.266,0.841c-0.539,0.54-1.092,0.271-1.625,0.01
		c-0.412-0.199-0.881-0.428-1.487-0.428c-0.603,0-0.918,0.172-1.317,0.389c-0.438,0.238-0.927,0.502-1.842,0.582
		c0.607,0.65,1.096,1.145,1.227,1.271c0.75,0.751,1.186,0.745,2.048,0.729c0.127-0.002,0.259-0.004,0.401-0.004
		c1.295,0,1.873,0.648,1.873,2.104c0,0.872-0.259,1.728-0.508,2.55c-0.107,0.355-0.211,0.695-0.291,1.025
		c0.02,0,0.036,0.004,0.055,0.004c1.375,0.007,4.24,0.023,5.107-0.844c0.283-0.285,0.492-0.559,0.693-0.826
		c0.511-0.676,0.953-1.262,2.191-1.262c0.307,0,0.58,0.012,0.822,0.022c0.969,0.04,1.453,0.06,2.201-0.688
		c0.852-0.851,2.377-1.281,3.602-1.627c0.34-0.095,0.656-0.186,0.922-0.272c0.397-0.134,0.815-0.396,1.256-0.673
		c0.828-0.518,1.768-1.106,2.826-0.944c0.664,0.103,1.34-0.002,1.937-0.099c0.755-0.117,1.354-0.211,1.712,0.148
		c0.689,0.688,0.216,1.161-0.285,1.663c-0.199,0.198-0.266,0.536-0.156,0.802c0.064,0.148,0.203,0.328,0.519,0.328
		c0.952,0,3.875,0.625,5.604,1.605c1.018,0.578,2.527,1.21,3.861,1.77c0.887,0.371,1.652,0.693,2.096,0.926
		c1.07,0.561,1.252,1.519,1.397,2.285c0.021,0.106,0.04,0.205,0.062,0.303c0.092,0.439,0.723,0.906,1.279,1.318
		c0.311,0.23,0.605,0.448,0.828,0.672c0.889,0.891,1.105,2.012,0.701,3.639c-0.342,1.363-0.229,3.047-0.151,4.162
		c0.024,0.349,0.044,0.623,0.044,0.82c0,0.483,0,1.954,0.609,2.564c0.291,0.291,1.664,1.365,2.994,2.404
		c1.519,1.188,3.09,2.416,3.49,2.814c0.655,0.66,1.193,0.729,2.006,0.833l0.074,0.01c0.764,0.101,1.188,0.364,1.268,0.788
		c0.115,0.624-0.637,1.271-1.317,1.635c-0.319,0.17-0.718,0.342-1.138,0.521c-1.231,0.529-2.764,1.188-3.549,2.354
		c-0.463,0.676-1.068,2.049-1.551,3.315c2.223-1.065,4.092-1.974,4.348-2.155c0.654-0.468,2.427-1.492,3.267-1.617
		c0.839-0.125,2.455-1.646,3.11-2.146c0.652-0.499,1.646-1.183,1.554-3.078C134.284,187.359,133.691,186.863,133.102,186.303z"/>
	<path fill="#606060" d="M65.2,74.219c-0.11-0.223-0.208-0.448-0.302-0.663c-0.21-0.481-0.409-0.936-0.661-1.188
		c-0.308-0.308-0.965-1.168-1.66-2.078c-0.751-0.982-1.527-1.998-1.902-2.373c-0.299-0.3-0.674-0.867-0.956-1.447
		c-0.529-1.091-0.329-1.342-0.253-1.436c0.112-0.14,0.336-0.25,0.762,0.021c1.031,0.656,2.886,1.305,3.641,1.127
		c0.263-0.062,0.366-0.211,0.508-0.418c0.214-0.312,0.481-0.701,1.309-0.701h0.083c0.546,0,1.294,0.001,1.402-0.178
		c0.031-0.051,0.017-0.196-0.114-0.446c-0.102-0.197-0.204-0.371-0.302-0.539c-0.422-0.723-0.755-1.294-0.229-2.148
		c0.322-0.528,0.215-1.124,0.111-1.7c-0.053-0.29-0.102-0.563-0.102-0.833c0-0.918,0.194-1.44,1.398-2.294l0.141-0.1
		c1.376-0.977,5.564-3.947,6.015-4.715c0.503-0.855,1.202-2.819,0.536-3.484c-0.465-0.468-1.339-0.776-2.184-1.075
		c-0.524-0.185-1.066-0.378-1.51-0.609c-0.146-0.075-0.293-0.15-0.438-0.223c-0.871-0.438-1.624-0.816-1.713-1.368
		c-0.038-0.234,0.048-0.457,0.255-0.664c0.347-0.348,0.843-0.632,1.365-0.932c0.584-0.335,1.188-0.681,1.65-1.146
		c0.098-0.096,0.203-0.199,0.313-0.308c0.908-0.884,2.279-2.22,2.279-3.658c0-0.506-0.088-0.847-0.187-1.117
		c-1.337-0.08-3.079,0.693-3.924,1.18c-1.199,0.692-2.109,0.15-3.173-0.63c-1.142-0.837-1.866-0.84-2.879-0.544
		c-1.172,0.343-1.722,1.376-2.163,2.207c-0.218,0.41-0.407,0.764-0.643,1c-0.396,0.396-0.882,0.44-1.445,0.132
		c-0.452-0.247-0.915-0.694-1.391-1.169c-0.463-0.463-0.905-0.292-1.711,0.076c-0.409,0.187-0.87,0.398-1.393,0.497
		c-1.444,0.274-2.017-0.464-2.743-1.399c-0.078-0.1-0.159-0.204-0.243-0.311c-0.891-1.123-1.882-1.358-2.557-1.358
		c-0.289,0-0.685,0.114-1.092,0.268c0.149,0.198,0.289,0.422,0.434,0.655c0.215,0.347,0.439,0.707,0.694,0.961
		c0.633,0.634,0.59,2.134,0.112,2.873c-0.528,0.815-0.539,1.43-0.036,1.933c0.757,0.756,1.303,1.303,1.861,2.578
		c0.286,0.654,0.291,1.191,0.296,1.71c0.004,0.503,0.008,0.976,0.277,1.549c0.29,0.62,0.877,0.898,1.556,1.22
		c0.533,0.253,1.084,0.514,1.541,0.972c1.153,1.152-0.34,4.136-1.114,4.91c-0.304,0.304-0.496,0.838-0.699,1.402
		c-0.23,0.641-0.468,1.303-0.914,1.749c-0.728,0.727-0.844,1.145-0.844,2.116c0,1.141-0.101,2.621-0.851,4.088
		c0.66,0.426,0.973,1.179,1.22,1.772c0.143,0.345,0.279,0.67,0.437,0.828c0.509,0.509,1.234,0.69,2.769,0.69
		c1.227,0,1.327,0.779,1.401,1.348c0.034,0.262,0.066,0.509,0.177,0.711c0.154,0.281,0.518,0.371,1.099,0.496
		c0.531,0.114,1.193,0.256,1.814,0.68c1.005,0.686,1.151,1.272,1.162,1.906C62.179,74.305,63.552,73.844,65.2,74.219z"/>
	<path fill="#606060" d="M51.767,183.68c0.137,0,0.282,0,0.433,0c1.724,0.004,4.331,0.01,6.089-0.507
		c0.44-0.128,0.934-0.282,1.458-0.444c1.786-0.555,4.011-1.244,5.807-1.514c1.559-0.234,2.266-0.811,3.083-1.479
		c0.338-0.275,0.688-0.563,1.116-0.836c0.81-0.519,1.914-0.867,2.956-0.936c0.893-0.056,2.15,0.064,3.057,0.973
		c1.471,1.472,3.543,3.309,4.652,3.976c0.497,0.297,0.699,0.317,0.76,0.313c0.008-0.056,0.014-0.259-0.222-0.779
		c-0.044-0.098-0.095-0.207-0.146-0.32c-0.615-1.33-1.541-3.34-0.545-4.337c0.877-0.878,1.502-2.211,0.99-2.722
		c-0.76-0.76-1.063-2.084-0.304-2.844c0.188-0.188,0.444-0.354,0.692-0.512c0.194-0.122,0.648-0.413,0.643-0.527
		c0-0.002-0.023-0.139-0.516-0.367c-1.461-0.676-2.557-1.317-2.271-2.814c0.087-0.457,0.226-0.914,0.371-1.396
		c0.237-0.789,0.483-1.603,0.483-2.396c0-1.175-0.338-1.569-1.338-1.569c-0.142,0-0.271,0.002-0.396,0.004
		c-0.917,0.015-1.524,0.023-2.437-0.885c-0.363-0.365-3.58-3.607-4.301-5.244c-0.611-1.39-1.855-2.636-2.326-3.104
		c-0.067-0.067-0.167-0.153-0.281-0.255c-0.504-0.445-1.195-1.057-1.215-1.704c-0.008-0.257,0.087-0.487,0.284-0.685
		c0.488-0.486,1.538-1.705,0.753-2.49c-0.33-0.328-0.588-0.691-0.815-1.01c-0.406-0.57-0.674-0.92-1.033-0.92
		c-0.737,0-1.11-0.439-1.472-0.865c-0.102-0.121-0.208-0.246-0.323-0.359c-0.477-0.477-1.07-1.07-1.705-1.07
		c-0.737,0-1.06-0.584-1.468-1.324c-0.113-0.203-0.229-0.414-0.366-0.64l-0.031-0.051c-2.176-3.557-3.144-6.608-2.875-9.066
		c0.357-3.258,1.276-3.99,1.948-4.524c0.119-0.096,0.222-0.177,0.309-0.264c0.269-0.268,0.604-0.603,0.563-0.796
		c-0.013-0.066-0.103-0.239-0.644-0.45c-1.298-0.508-1.588-1.385-1.867-2.235c0,0,0,0,0-0.001c-0.022,0.013-0.046,0.024-0.067,0.036
		c-1.033,0.536-3.004,0.536-4.063,0.536c-0.232,0-0.47-0.016-0.699-0.033c-0.737-0.052-1.435-0.102-1.922,0.385
		c-0.629,0.629-0.936,1.296-0.936,2.035c0,0.293-0.142,0.553-0.4,0.733c-0.53,0.366-1.517,0.376-2.457,0.024
		c-1.125-0.422-2.772-0.392-4.518,0.085c-1.062,0.289-2.42,0.343-4.054,0.16c-0.301,1.065-1.422,4.366-4.269,6.845
		c-2.765,2.41-17.767,14.38-19.413,15.546c-1.25,0.885-3.951,2.411-6.553,3.405c0.053,1.563,0.172,4.448,0.291,5.278
		c0.161,1.119,0.747,1.975,1.12,2.347c0.373,0.373,1.653,0.321,1.973,0.267c0.32-0.053,0.907,0.056,1.386,0.373
		c0.48,0.321,3.732,2.453,4.318,2.936c0.587,0.479,1.653,0.479,2.027,0.425c0.373-0.053,0.479-0.372,0.853,0.161
		c0.373,0.531,4.904,7.943,5.438,8.688c0.533,0.748,1.226,1.975,1.226,2.4s1.066,8.211,1.066,9.331c0,0.812,0.06,1.174,0.375,1.576
		c4.955-1.083,16.065-3.591,17.045-3.917C48.322,183.914,50.026,183.68,51.767,183.68z"/>
	<path fill="#606060" d="M35.59,135.107c2.674-2.331,3.764-5.416,4.083-6.511c-0.527-0.072-1.08-0.167-1.659-0.286
		c-1.503-0.305-3.07,0.017-4.215,0.254c-0.433,0.089-0.807,0.166-1.125,0.203l-0.019,0.002c-0.476,0.054-1.017,0.115-1.523,0.115
		c-0.87,0-1.637-0.181-1.792-0.896c-0.052-0.238-0.066-0.489-0.079-0.731c-0.041-0.739-0.073-1.324-0.998-1.649
		c-0.538-0.188-1.097-0.242-1.638-0.292c-0.897-0.085-1.743-0.165-2.403-0.825c-0.421-0.42-0.726-0.927-1.02-1.417
		c-0.404-0.669-0.784-1.303-1.408-1.615c-0.228-0.115-0.476-0.222-0.716-0.327c-0.805-0.353-1.501-0.657-1.653-1.193
		c-0.067-0.241-0.012-0.49,0.163-0.744c0.184-0.263,0.301-0.511,0.415-0.75c0.255-0.535,0.496-1.041,1.346-1.23
		c0.982-0.219,1.66-0.631,1.739-0.803c-0.097-0.095-0.227-0.189-0.367-0.288c-0.408-0.288-0.918-0.65-0.918-1.38
		c0-0.418,0.16-0.777,0.315-1.124c0.179-0.403,0.349-0.785,0.274-1.253c-0.044-0.276-0.182-0.733-0.398-1.214
		c-0.053,0.006-0.104,0.017-0.161,0.017c-0.799,0-2.292,1.065-3.092,1.759c-0.8,0.692-3.359,1.385-4.212,1.92
		c-0.853,0.532-0.959,1.811-0.906,2.771c0.053,0.959-0.746,1.865-1.333,3.305s-1.759,1.814-2.612,1.814
		c-0.854,0-2.24,0.799-2.986,1.599c-0.746,0.8-1.066,1.865-1.546,2.079c-0.481,0.214-1.173,1.012-1.44,1.76
		c-0.266,0.745-0.106,2.825-0.053,3.571c0.053,0.748-0.853,2.133-0.959,3.306c-0.107,1.174,1.12,5.067,1.706,5.756
		c0.587,0.693,0.213,1.547,0.213,1.922c0,0.373,0,1.225,0.213,1.651c0.213,0.427,4.266,7.356,4.479,7.729
		c0.214,0.373,0.64,1.014,0.64,1.334c0,0.043,0.003,0.175,0.009,0.363c2.48-0.971,5.076-2.354,6.266-3.193
		C17.861,149.456,32.83,137.511,35.59,135.107z"/>
	<path fill="#606060" d="M22.605,113.837c-0.138,0.31-0.268,0.602-0.268,0.906c0,0.454,0.321,0.682,0.693,0.945
		c0.151,0.108,0.309,0.22,0.438,0.35c0.142,0.141,0.192,0.322,0.138,0.505c-0.176,0.606-1.478,1.043-2.142,1.191
		c-0.596,0.133-0.74,0.436-0.979,0.939c-0.117,0.247-0.25,0.526-0.458,0.826c-0.121,0.173-0.095,0.264-0.087,0.293
		c0.083,0.293,0.758,0.589,1.354,0.85c0.246,0.108,0.5,0.219,0.741,0.34c0.762,0.38,1.201,1.11,1.626,1.817
		c0.277,0.461,0.565,0.939,0.939,1.314c0.525,0.522,1.244,0.591,2.077,0.669c0.573,0.054,1.166,0.11,1.765,0.32
		c1.26,0.445,1.312,1.375,1.353,2.124c0.012,0.23,0.024,0.449,0.067,0.646c0.143,0.657,1.766,0.474,2.735,0.364l0.018-0.002
		c0.295-0.033,0.658-0.107,1.079-0.195c1.19-0.244,2.819-0.581,4.428-0.254c2.557,0.522,4.577,0.589,6.002,0.201
		c1.88-0.513,3.6-0.538,4.846-0.071c0.86,0.323,1.64,0.263,1.966,0.037c0.153-0.106,0.171-0.22,0.171-0.294
		c0-0.889,0.358-1.678,1.093-2.413c0.658-0.659,1.549-0.595,2.336-0.539c0.231,0.016,0.449,0.032,0.662,0.032
		c0.941,0,2.899,0,3.817-0.478c0.987-0.513,3.138-1.201,3.986-1.201c0.316,0,0.743,0.072,1.238,0.155
		c0.776,0.131,1.655,0.279,2.267,0.173c0.47-0.083,1.281-0.497,2.062-0.971c-0.004-0.196-0.016-0.458-0.029-0.752
		c-0.045-0.984-0.106-2.329,0.01-3.221c0.127-0.987-0.277-1.198-1.376-1.512c-1.233-0.352-2.181-1.498-2.546-2.12
		c-0.341-0.579-0.733-0.944-1.831-1.208c-1.188-0.289-1.856-0.667-2.75-1.56c-0.906-0.905-1.157-2.438-0.934-3.421
		c0.082-0.358,0.247-0.645,0.393-0.896c0.256-0.441,0.293-0.552,0.11-0.735c-0.132-0.131-0.241-0.112-0.613,0.021
		c-0.378,0.137-0.896,0.322-1.54,0.036c-0.383-0.17-0.706-0.372-0.991-0.551c-0.538-0.337-0.962-0.601-1.604-0.601
		c-0.544,0-1.523-0.075-2.56-0.152c-1.06-0.081-2.156-0.164-2.768-0.164c-0.823,0-2.126-0.699-3.275-1.314
		c-0.569-0.306-1.107-0.594-1.428-0.704c-0.591,0.266-1.202,0.437-1.766,0.595c-0.364,0.102-0.707,0.198-0.992,0.307
		c-0.416,0.161-1.013,0.496-1.646,0.85c-0.867,0.486-1.764,0.989-2.445,1.193c-0.421,0.126-0.428,0.249-0.446,0.519
		c-0.019,0.286-0.046,0.716-0.671,1.004c-0.135,0.062-0.274,0.09-0.416,0.09c-0.725,0-1.543-0.735-2.401-1.507
		c-0.478-0.43-0.972-0.875-1.436-1.175c-0.673-0.437-1.128-0.465-1.529-0.491c-0.406-0.024-0.827-0.051-1.28-0.504
		c-0.518-0.519-1.226-0.716-1.975-0.924c-0.012-0.003-0.047-0.015-0.082-0.025c-0.212,0.268-0.452,0.507-0.693,0.693
		c-0.693,0.533-0.532,0.96,0.16,1.76c0.694,0.799,0.054,0.959-0.959,1.065c-1.013,0.107-0.639,1.334-0.853,1.92
		c-0.214,0.586-1.013,0.212-1.707,0.906c-0.48,0.48-0.809,0.93-1.23,1.164c0.212,0.478,0.403,0.979,0.451,1.282
		C23.019,112.906,22.799,113.401,22.605,113.837z"/>
	<path fill="#606060" d="M126.995,192.1c0.411-0.177,0.797-0.343,1.098-0.504c0.698-0.373,1.085-0.843,1.044-1.066
		c-0.023-0.125-0.248-0.281-0.81-0.354l-0.073-0.01c-0.82-0.104-1.529-0.194-2.318-0.981c-0.375-0.379-2.004-1.65-3.44-2.775
		c-1.402-1.096-2.728-2.131-3.041-2.446c-0.688-0.687-0.767-2.007-0.767-2.94c0-0.181-0.02-0.459-0.041-0.785
		c-0.08-1.146-0.196-2.883,0.164-4.327c0.453-1.823-0.063-2.634-0.563-3.134c-0.193-0.193-0.473-0.398-0.768-0.618
		c-0.662-0.491-1.349-1-1.484-1.638c-0.021-0.102-0.042-0.205-0.063-0.313c-0.138-0.725-0.281-1.475-1.121-1.912
		c-0.426-0.223-1.181-0.54-2.056-0.906c-1.346-0.565-2.872-1.205-3.921-1.799c-1.686-0.955-4.536-1.535-5.34-1.535
		c-0.462,0-0.838-0.246-1.01-0.656c-0.192-0.463-0.08-1.032,0.27-1.383c0.559-0.559,0.579-0.619,0.288-0.91
		c-0.168-0.17-0.696-0.086-1.256,0.002c-0.601,0.097-1.351,0.213-2.097,0.099c-0.862-0.133-1.676,0.377-2.463,0.869
		c-0.471,0.297-0.912,0.573-1.371,0.728c-0.275,0.094-0.601,0.184-0.942,0.28c-1.167,0.329-2.618,0.735-3.371,1.49
		c-0.913,0.911-1.583,0.887-2.599,0.845c-0.238-0.011-0.504-0.021-0.803-0.021c-0.974,0-1.271,0.396-1.768,1.049
		c-0.202,0.27-0.432,0.572-0.743,0.883c-0.944,0.943-3.325,1.011-5.485,0.997c-0.053,0-0.102,0-0.148-0.002
		c-0.068,0.803,0.432,1.286,2.004,2.016c0.339,0.158,0.794,0.414,0.818,0.813c0.029,0.435-0.414,0.718-0.885,1.016
		c-0.227,0.145-0.459,0.292-0.604,0.438c-0.511,0.513-0.261,1.525,0.306,2.09c0.776,0.777,0.104,2.378-0.994,3.476
		c-0.732,0.734,0.133,2.614,0.652,3.738c0.053,0.116,0.102,0.224,0.148,0.323c0.205,0.457,0.438,1.099,0.093,1.404
		c-0.345,0.305-0.96-0.004-1.394-0.263c-1.147-0.69-3.262-2.562-4.754-4.058c-1.35-1.348-3.973-0.846-5.351,0.037
		c-0.399,0.256-0.738,0.531-1.065,0.799c-0.842,0.687-1.638,1.336-3.341,1.593c-1.756,0.263-3.959,0.946-5.729,1.495
		c-0.525,0.162-1.021,0.318-1.464,0.447c-1.833,0.539-4.485,0.531-6.241,0.526c-0.151,0-0.295,0-0.432,0
		c-1.686,0-3.328,0.226-4.505,0.616c-0.964,0.322-11.67,2.738-16.787,3.863c0.018,0.019,0.032,0.033,0.051,0.051
		c0.746,0.693,20.142,14.725,20.795,15.252c0.653,0.527,1.43,0.9,1.679,2.208c0.249,1.306,8.147,37.408,8.738,40.235
		c0.59,2.83,5.037,22.172,5.348,23.509c0.312,1.339,0.715,3.202,0.809,4.543c0.051,0.735,0,1.678,0.591,1.491
		c0.591-0.188,5.596-2.676,6.035-2.894c0.434-0.217,0.838-0.901,1.242-1.243c0.403-0.342,2.705-0.031,3.545,0.125
		c0.84,0.154,1.242-1.4,1.523-1.772c0.277-0.373,1.18-1.587,1.74-2.457c0.56-0.87,3.449-5.101,4.104-6.343
		c0.652-1.244,1.804-2.611,2.921-3.172c1.122-0.561,1.09-1.836,1.649-3.108c0.56-1.274,0.963-2.489,1.368-3.203
		c0.402-0.715,0.56-1.71,0.248-2.706c-0.313-0.994-1.057-2.549-1.057-3.202c0-0.651,0.342-1.274,0.311-2.177
		c-0.03-0.9-0.717-0.498-0.934-1.835c-0.22-1.336-2.332-7.683-2.892-9.3c-0.563-1.615-0.81-1.366-0.623-2.301
		c0.187-0.934,0.155-1.336,0.249-2.549c0.093-1.214,3.576-4.82,4.137-6.375c0.561-1.556,2.236-2.395,2.797-2.395
		s1.773-0.249,2.77,0.093c0.994,0.343,1.648-0.278,2.768-1.149c1.12-0.871,0.561-1.336,1.149-2.301
		c0.591-0.964,1.339-1.057,1.805-1.771c0.466-0.717,0.03-1.401,0.218-2.303c0.187-0.901-0.095-1.584,0.248-1.896
		c0.344-0.311,0.965-0.061,1.834,0.188c0.871,0.248,1.246-0.155,1.773-0.59c0.527-0.437,0.714-0.996,1.398-1.369
		c0.684-0.373,1.306-1.088,1.836-1.896c0.525-0.811,0.744-1.521,1.272-2.331s1.244-0.935,1.96-1.463
		c0.405-0.3,4.195-2.106,7.514-3.696c0.504-1.404,1.207-3.072,1.813-3.953C124.089,193.348,125.701,192.654,126.995,192.1z"/>
	<path fill="#606060" d="M114.525,105.91c-0.396,0.099,0.101,0.889,0.496,1.087c0.395,0.198,1.434,0.792,1.928,0.248
		c0.494-0.543,1.484-0.84,1.436-1.186c-0.051-0.347-0.593-0.297-0.843-0.347C116.67,105.538,114.921,105.811,114.525,105.91z"/>
	<path fill="#606060" d="M120.018,105.169c0.494-0.543,1.729-1.087,2.521-1.583c0.792-0.493,1.583-0.394,1.73-0.889
		c0.148-0.495-0.643-1.236-0.049-1.88c0.594-0.643,0.445-0.742-0.396-1.039c-0.843-0.296-1.089-0.296-1.238,0.248
		c-0.147,0.542-0.591,0.346-0.84,0.889c-0.247,0.545,0.544,1.139,0.051,1.583c-0.495,0.445-0.989-0.544-1.336,0
		c-0.347,0.545-1.009,1.311-1.14,1.83C118.928,105.911,119.521,105.712,120.018,105.169z"/>
	<path fill="#FFFFFF" d="M31.459,40.279c-0.042,0.188-0.091,0.364-0.147,0.521c0.022,0.011,0.05,0.021,0.073,0.031
		c0.057-0.155,0.107-0.328,0.151-0.516C31.511,40.302,31.484,40.291,31.459,40.279z"/>
	<path fill="#FFFFFF" d="M54.071,8.563c-0.178,0.042-0.365,0.092-0.555,0.188c-0.006,0.073-0.012,0.153-0.018,0.229
		c0.194-0.1,0.382-0.168,0.564-0.212C54.065,8.683,54.068,8.599,54.071,8.563z"/>
	<path fill="#FFFFFF" d="M95.932,25.625c-0.186,0.028-0.356,0.045-0.541,0.063c-0.01,0.045-0.021,0.096-0.031,0.143
		c0.18-0.016,0.359-0.038,0.543-0.064C95.911,25.72,95.923,25.669,95.932,25.625z"/>
	<path fill="#FFFFFF" d="M48.18,14.32c-0.14,0.13-0.255,0.275-0.383,0.383c0.041,0.033,0.089,0.074,0.132,0.111
		c0.129-0.108,0.266-0.23,0.408-0.362C48.285,14.408,48.229,14.361,48.18,14.32z"/>
	<path fill="#FFFFFF" d="M9.797,153.875c0.005,0.152,0.071,0.404,0.078,0.625c0.033-0.014,0.066-0.027,0.099-0.04
		c-0.009-0.258-0.016-0.478-0.021-0.647C9.901,153.832,9.849,153.855,9.797,153.875z"/>
	<path fill="#FFFFFF" d="M121.344,198.734c0.232-0.11,0.447-0.156,0.672-0.267c0.026-0.071,0.055-0.144,0.082-0.216
		c-0.229,0.109-0.464,0.223-0.701,0.336C121.379,198.637,121.359,198.688,121.344,198.734z"/>
	<path fill="#FFFFFF" d="M30.531,69.066c0,0.182,0.003,0.36,0.008,0.538c0.037-0.005,0.067-0.014,0.104-0.02
		c-0.004-0.176-0.008-0.358-0.009-0.539C30.598,69.052,30.569,69.061,30.531,69.066z"/>
	<path fill="#FFFFFF" d="M27.984,103.016c-0.094,0.162-0.196,0.306-0.313,0.453c0.012,0.003,0.045,0.013,0.079,0.024
		c0.113-0.144,0.217-0.296,0.309-0.455C28.035,103.031,28.009,103.022,27.984,103.016z"/>
	<path fill="#FFFFFF" d="M22.406,110.859c-0.155,0.084-0.244,0.219-0.438,0.234c0.009,0.021,0.016,0.04,0.025,0.06
		c0.175-0.021,0.331-0.073,0.474-0.153C22.447,110.954,22.428,110.906,22.406,110.859z"/>
	<path fill="#FFFFFF" d="M83.919,125.772c0.05,0.03,0.101,0.06,0.144,0.087c0.006-0.102-0.039-0.229-0.03-0.313
		c0.012-0.102,0.028-0.209,0.047-0.313c-0.029-0.018-0.062-0.035-0.091-0.053c-0.018,0.109-0.036,0.218-0.049,0.324
		C83.932,125.585,83.924,125.676,83.919,125.772z"/>
	<path fill="#FFFFFF" d="M91.023,22.888c0.006-0.028,0.019-0.064,0.022-0.091c-0.271,0.121-0.34,0.47-0.688,0.578
		c-0.019,0.058-0.045,0.129-0.067,0.198C90.626,23.457,90.758,23.008,91.023,22.888z"/>
	<path fill="#FFFFFF" d="M89.17,22.097h0.127c0-0.006-0.128-0.012-0.128-0.017c-0.01-0.179,0.212-0.358,0.3-0.516l-0.156,0.001
		c-0.09,0.161-0.154,0.334-0.145,0.516C89.168,22.086,89.17,22.092,89.17,22.097z"/>
	<path fill="#FFFFFF" d="M90.457,10.873c0.063,0.001,0.125,0.001,0.184,0.002c-0.021-0.184-0.224-0.431-0.422-0.594
		c-0.051,0-0.107,0.002-0.16,0.002C90.283,10.459,90.45,10.67,90.457,10.873z"/>
	<path fill="#FFFFFF" d="M30.047,188.241c-0.036,0.008-0.075,0.017-0.11,0.024c0.111,0.139,0.252,0.282,0.432,0.45
		c0.034-0.008,0.071-0.016,0.105-0.022C30.296,188.525,30.156,188.38,30.047,188.241z"/>
	<path fill="#FFFFFF" d="M98.036,145.253c0.034-0.03,0.069-0.065,0.104-0.097c-0.139-0.07-0.231-0.113-0.359-0.219
		c-0.021-0.017-0.09-0.125-0.109-0.142c-0.048,0.043-0.096,0.093-0.143,0.136c0.029,0.021,0.061,0.043,0.094,0.069
		C97.755,145.109,97.896,145.182,98.036,145.253z"/>
	<path fill="#FFFFFF" d="M115.859,71.625c-0.057-0.163-0.137-0.318-0.172-0.5c-0.031,0.007-0.082,0.018-0.123,0.027
		c0.037,0.177,0.076,0.352,0.131,0.512C115.76,71.649,115.816,71.636,115.859,71.625z"/>
	<path fill="#FFFFFF" d="M115.813,90.297c0.014-0.166,0.017-0.353,0.017-0.547c-0.044-0.005-0.095-0.012-0.142-0.018
		c0,0.198-0.004,0.379-0.017,0.546C115.718,90.284,115.77,90.292,115.813,90.297z"/>
	<path fill="#FFFFFF" d="M105.018,62.332c0.041-0.048,0.092-0.106,0.123-0.144c-0.135-0.119-0.269-0.251-0.391-0.375
		c-0.035,0.042-0.078,0.093-0.124,0.146C104.752,62.084,104.882,62.21,105.018,62.332z"/>
	<path fill="#FFFFFF" d="M99.609,40.734c0.123-0.159,0.297-0.286,0.406-0.406c-0.043-0.024-0.086-0.04-0.129-0.062
		c-0.111,0.123-0.234,0.263-0.363,0.428C99.555,40.709,99.58,40.719,99.609,40.734z"/>
	<path fill="#FFFFFF" d="M127.197,192.583c0.42-0.181,0.818-0.353,1.138-0.522c0.681-0.363,1.433-1.01,1.317-1.634
		c-0.078-0.424-0.504-0.688-1.268-0.788l-0.074-0.01c-0.813-0.104-1.351-0.173-2.006-0.833c-0.4-0.399-1.973-1.628-3.49-2.815
		c-1.33-1.039-2.703-2.112-2.994-2.402c-0.609-0.611-0.609-2.082-0.609-2.564c0-0.197-0.02-0.474-0.044-0.82
		c-0.076-1.115-0.19-2.799,0.151-4.162c0.404-1.627,0.188-2.748-0.701-3.639c-0.223-0.225-0.518-0.441-0.828-0.672
		c-0.557-0.412-1.188-0.88-1.28-1.318c-0.021-0.098-0.041-0.196-0.062-0.303c-0.145-0.769-0.326-1.727-1.396-2.285
		c-0.443-0.232-1.209-0.555-2.096-0.926c-1.334-0.561-2.844-1.191-3.862-1.771c-1.729-0.979-4.651-1.604-5.604-1.604
		c-0.313,0-0.452-0.181-0.518-0.328c-0.109-0.267-0.043-0.604,0.156-0.803c0.501-0.502,0.975-0.976,0.285-1.662
		c-0.357-0.359-0.957-0.268-1.712-0.148c-0.597,0.096-1.272,0.199-1.937,0.098c-1.06-0.162-1.998,0.428-2.826,0.945
		c-0.439,0.277-0.857,0.539-1.256,0.672c-0.266,0.088-0.582,0.179-0.923,0.273c-1.224,0.346-2.75,0.775-3.601,1.627
		c-0.748,0.748-1.233,0.729-2.201,0.688c-0.242-0.012-0.518-0.021-0.822-0.021c-1.238,0-1.682,0.586-2.191,1.262
		c-0.201,0.268-0.41,0.541-0.693,0.826c-0.867,0.867-3.732,0.85-5.107,0.843c-0.019,0-0.035-0.003-0.055-0.003
		c0.08-0.33,0.184-0.67,0.291-1.026c0.249-0.823,0.508-1.678,0.508-2.55c0-1.455-0.578-2.104-1.873-2.104
		c-0.144,0-0.275,0.002-0.402,0.004c-0.861,0.016-1.297,0.021-2.047-0.729c-0.131-0.127-0.619-0.62-1.227-1.271
		c0.915-0.08,1.403-0.344,1.842-0.582c0.399-0.217,0.715-0.39,1.317-0.39c0.606,0,1.075,0.229,1.487,0.429
		c0.533,0.262,1.086,0.529,1.625-0.01c0.562-0.561,1.313-0.686,2.266-0.842c0.186-0.029,0.378-0.063,0.579-0.1
		c0.95-0.172,1.288-0.637,1.676-1.174c0.187-0.254,0.394-0.543,0.701-0.852c1.114-1.111,2.167-1.766,3.319-2.053
		c1.298-0.324,2.268-0.799,2.783-2.051c0.213-0.519,2.653-5.049,5.103-7.229c-0.142-0.071-0.281-0.144-0.413-0.251
		c-0.033-0.025-0.063-0.048-0.094-0.068c-2.504,2.318-4.864,6.801-5.088,7.344c-0.381,0.922-1.034,1.393-2.42,1.738
		c-1.248,0.313-2.383,1.008-3.566,2.191c-0.337,0.338-0.561,0.645-0.755,0.915c-0.377,0.517-0.603,0.828-1.343,0.962
		c-0.195,0.036-0.385,0.066-0.57,0.098c-1.004,0.166-1.872,0.311-2.553,0.99c-0.252,0.249-0.453,0.182-1.019-0.093
		c-0.44-0.216-0.987-0.481-1.721-0.481c-0.737,0-1.162,0.229-1.572,0.453c-0.474,0.256-0.964,0.521-2.055,0.538
		c-0.995-1.099-2.123-2.446-2.498-3.3c-0.649-1.48-1.948-2.777-2.438-3.268c-0.08-0.08-0.184-0.172-0.305-0.277
		c-0.383-0.338-1.023-0.904-1.036-1.321c-0.003-0.104,0.038-0.198,0.129-0.288c1.271-1.271,1.545-2.453,0.753-3.246
		c-0.299-0.299-0.532-0.625-0.758-0.943c-0.419-0.588-0.814-1.143-1.467-1.143c-0.49,0-0.73-0.285-1.065-0.678
		c-0.109-0.13-0.222-0.262-0.353-0.395c-0.545-0.545-1.225-1.224-2.081-1.224c-0.405,0-0.61-0.344-1.002-1.051
		c-0.109-0.199-0.234-0.425-0.377-0.658l-0.031-0.051c-2.114-3.457-3.056-6.394-2.8-8.732c0.332-3.038,1.152-3.689,1.75-4.166
		c0.125-0.1,0.245-0.194,0.354-0.304c0.397-0.396,0.807-0.806,0.708-1.282c-0.071-0.34-0.38-0.604-0.972-0.837
		c-1.063-0.417-1.291-1.105-1.554-1.904c-0.006-0.02-0.013-0.038-0.019-0.056c1.063-0.444,2.603-0.884,3.184-0.884
		c0.271,0,0.697,0.071,1.149,0.148c0.818,0.138,1.745,0.294,2.447,0.172c1.172-0.206,3.696-1.921,4.277-2.505
		c0.293-0.292,0.529-0.409,0.771-0.385c0.389,0.042,0.846,0.457,1.354,1.238c1.166,1.789,2.3,1.774,3.128,1.762
		c0.062,0,0.12-0.001,0.179-0.001c0.997,0,1.739,0.17,2.036,0.468c0.084,0.085,0.209,0.23,0.351,0.398
		c0.588,0.689,1.475,1.728,2.362,1.899c0.288,0.055,0.513,0.022,0.688-0.104c0.272-0.195,0.322-0.536,0.369-0.866
		c0.032-0.245,0.067-0.498,0.193-0.624c0.21-0.21,1.08,0.263,1.621,0.589c0.005-0.097,0.012-0.188,0.021-0.267
		c0.012-0.106,0.031-0.215,0.049-0.324c-0.74-0.437-1.612-0.832-2.067-0.375c-0.253,0.251-0.303,0.611-0.349,0.927
		c-0.029,0.208-0.063,0.444-0.149,0.507c-0.048,0.034-0.146,0.039-0.278,0.013c-0.703-0.134-1.552-1.128-2.058-1.722
		c-0.155-0.183-0.278-0.329-0.379-0.427c-0.517-0.516-1.599-0.625-2.413-0.625c-0.061,0-0.122,0.002-0.186,0.002
		c-0.437,0.005-0.903,0.012-1.405-0.249c0.093-0.078,0.187-0.15,0.278-0.223c0.369-0.286,0.72-0.557,0.746-0.972
		c0.02-0.305-0.145-0.618-0.511-0.984c-0.567-0.569-1.429-1.429-1.325-1.852c0.03-0.131,0.185-0.242,0.453-0.328
		c0.413-0.134,0.896-0.244,1.407-0.361c1.188-0.271,2.415-0.551,3.054-1.188c0.813-0.813,1.452-1.456,2.432-1.456
		c0.976,0,1.467-0.559,1.939-1.102c0.119-0.137,0.243-0.278,0.375-0.411c0.393-0.391,0.764-1.037,0.943-1.644
		c0.246-0.816,0.138-1.507-0.303-1.947c-0.901-0.904-2.982-1.463-4.393-1.463c-0.119,0-0.236,0.001-0.354,0.002
		c-0.739,0.007-1.438,0.015-1.754-0.3c-0.15-0.147-0.223-0.376-0.223-0.696c0-1.409,0.23-2.201,1.129-3.855
		c0.207-0.379,0.584-1.04,1.063-1.876c1.692-2.956,4.53-7.905,4.849-9.372c0.325-1.511,1.872-2.959,2.614-3.657
		c0.112-0.105,0.211-0.196,0.281-0.266c0.096-0.097,0.188-0.211,0.293-0.333c0.472-0.567,1.059-1.272,2.377-0.979
		c0.688,0.154,1.274,0.183,1.796,0.21c0.813,0.044,1.396,0.075,1.884,0.56c0.854,0.853,1.507,1.354,2.75,0.582
		c0.464-0.286,1.021-0.497,1.558-0.703c0.662-0.253,1.232-0.47,1.56-0.795c0.276-0.277,0.491-0.658,0.72-1.061
		c0.239-0.423,0.485-0.862,0.813-1.189c0.114-0.116,0.231-0.242,0.344-0.364c0.631-0.69,1.056-1.087,1.612-0.778
		c0.234,0.129,0.47,0.31,0.699,0.485c0.643,0.495,1.439,1.11,2.24,0.311c0.366-0.369,0.586-0.947,0.774-1.458
		c0.132-0.349,0.33-0.876,0.479-0.909c0.01-0.002,0.096-0.013,0.299,0.19c0.59,0.589,0.653,1.12,0.737,1.792
		c0.058,0.442,0.116,0.944,0.337,1.526c0.313,0.823,0.719,1.293,1.211,1.397c0.26,0.057,0.664,0.03,1.106-0.413
		c0.099-0.098,0.21-0.128,0.351-0.094c0.402,0.099,0.9,0.68,1.088,1.271c0.318,1.016,1.195,1.28,1.836,1.473
		c0.039,0.012,0.082,0.024,0.121,0.037c0.291,0.091,0.832,0.184,1.275,0.239c0.014-0.167,0.016-0.348,0.018-0.546
		c-0.406-0.05-0.895-0.128-1.139-0.202c-0.038-0.012-0.079-0.025-0.122-0.038c-0.612-0.185-1.245-0.376-1.481-1.124
		c-0.211-0.667-0.797-1.464-1.469-1.628c-0.32-0.078-0.623,0.005-0.854,0.234c-0.15,0.151-0.385,0.321-0.623,0.27
		c-0.291-0.063-0.581-0.441-0.816-1.066c-0.201-0.522-0.255-0.97-0.31-1.403c-0.091-0.712-0.175-1.385-0.894-2.104
		c-0.276-0.279-0.537-0.388-0.789-0.334c-0.432,0.094-0.633,0.627-0.86,1.243c-0.175,0.459-0.369,0.98-0.654,1.267
		c-0.426,0.426-0.778,0.23-1.538-0.355c-0.244-0.188-0.496-0.382-0.767-0.53c-0.968-0.534-1.688,0.252-2.265,0.884
		c-0.114,0.124-0.221,0.24-0.328,0.348c-0.379,0.379-0.645,0.849-0.898,1.304c-0.211,0.371-0.406,0.72-0.633,0.945
		c-0.245,0.245-0.792,0.454-1.373,0.675c-0.535,0.204-1.143,0.436-1.646,0.748c-0.856,0.531-1.221,0.37-2.094-0.506
		c-0.632-0.629-1.373-0.668-2.234-0.713c-0.438-0.023-0.932-0.049-1.485-0.154c0.008-0.065,0.014-0.134,0.021-0.208
		c0.043-0.431,0.102-1.022-0.033-1.754c-0.088-0.487-0.32-0.798-0.525-1.072c-0.247-0.333-0.459-0.62-0.459-1.217
		c0-0.636-0.197-1.208-0.389-1.76c-0.193-0.559-0.392-1.136-0.392-1.792c0-1.364,0.634-3.15,1.384-3.899
		c0.715-0.717,0.657-1.371,0.601-2.062c-0.021-0.209-0.036-0.425-0.036-0.658c0-0.652,0.275-1.168,1.555-1.531
		c-0.009,0.04-0.019,0.081-0.023,0.122c-0.059,0.28-0.115,0.568-0.115,0.863c0,0.735,0.598,1.594,1.173,2
		c0.366,0.257,0.718,0.337,1.015,0.23c0.771-0.275,1.647-0.509,2.344,0.185c0.281,0.28,0.467,0.548,0.645,0.807
		c0.34,0.494,0.691,1.004,1.645,1.515c0.342,0.182,0.623,0.271,0.867,0.271c0.1,0,0.192-0.015,0.281-0.044
		c0.434-0.146,0.645-0.597,0.907-1.169c0.132-0.282,0.278-0.602,0.478-0.938c0.519-0.886,0.766-0.827,1.494-0.651
		c0.271,0.066,0.608,0.147,1.021,0.188c0.651,0.065,1.393,0.288,2.106,0.504c0.875,0.263,1.775,0.535,2.567,0.535
		c1.063,0,1.629-0.842,2.179-1.657c0.268-0.395,0.54-0.804,0.877-1.141c0.715-0.714,2.307-1.082,3.586-1.379
		c0.131-0.03,0.346-0.078,0.514-0.117c-0.057-0.16-0.096-0.335-0.131-0.512c-0.162,0.035-0.363,0.078-0.502,0.109
		c-1.346,0.312-3.021,0.7-3.842,1.522c-0.375,0.374-0.664,0.804-0.943,1.219c-0.516,0.764-0.957,1.423-1.735,1.423
		c-0.711,0-1.576-0.261-2.414-0.513c-0.739-0.224-1.505-0.454-2.211-0.524c-0.371-0.038-0.677-0.111-0.944-0.175
		c-0.375-0.09-0.688-0.153-0.973-0.102c-0.162-0.351-0.438-0.633-0.76-0.768c-0.256-0.106-0.66-0.174-1.149,0.107
		c-0.288,0.167-0.487,0.327-0.661,0.468c-0.32,0.256-0.494,0.397-0.979,0.397c-0.173,0-0.198-0.067-0.214-0.104
		c-0.114-0.278,0.136-0.929,0.4-1.194c0.114-0.117,0.262-0.21,0.402-0.301c0.33-0.214,0.781-0.505,0.586-1.134
		c-0.075-0.248-0.075-0.428,0.003-0.552c0.099-0.155,0.335-0.264,0.71-0.323c1.087-0.172,2.225-0.946,2.768-1.882
		c0.408-0.702,0.275-1.633,0.148-2.534c-0.059-0.413-0.111-0.805-0.111-1.152c0-0.676,0.688-1.455,1.414-2.278
		c0.119-0.137,0.307-0.352,0.459-0.53c-0.136-0.122-0.266-0.247-0.392-0.373c-0.153,0.182-0.347,0.411-0.47,0.549
		c-0.795,0.902-1.545,1.754-1.545,2.631c0,0.385,0.059,0.813,0.117,1.227c0.113,0.811,0.23,1.65-0.084,2.192
		c-0.521,0.9-1.597,1.497-2.391,1.622c-0.541,0.085-0.896,0.271-1.078,0.567c-0.162,0.263-0.184,0.587-0.059,0.991
		c0.066,0.222-0.006,0.294-0.369,0.529c-0.156,0.102-0.334,0.216-0.491,0.372C97.9,73,97.52,73.872,97.744,74.415
		c0.064,0.161,0.246,0.433,0.706,0.433c0.672,0,0.97-0.239,1.312-0.516c0.161-0.129,0.346-0.275,0.596-0.421
		c0.242-0.139,0.47-0.165,0.68-0.078c0.199,0.083,0.377,0.271,0.479,0.5c-0.201,0.157-0.404,0.405-0.623,0.777
		c-0.211,0.359-0.365,0.691-0.498,0.984c-0.209,0.456-0.379,0.815-0.594,0.888c-0.15,0.051-0.396-0.014-0.729-0.191
		c-0.838-0.45-1.123-0.865-1.455-1.347c-0.193-0.279-0.395-0.567-0.706-0.882c-0.992-0.992-2.282-0.531-2.899-0.31
		c-0.125,0.044-0.318-0.016-0.527-0.163c-0.504-0.355-0.944-1.087-0.944-1.564c0-0.242,0.049-0.492,0.104-0.758
		c0.131-0.66,0.281-1.408-0.299-2.261c-0.109-0.16-0.238-0.35-0.388-0.562c-0.81-1.18-2.166-3.154-2.665-4.11
		c-0.602-1.154-1.165-4.012-0.046-5.129c1.226-1.225,1.657-2.995,1.657-4.244c0-1.57-0.45-2.554-1.385-3.009
		c-0.668-0.327-1.031-0.636-1.078-0.92c-0.03-0.183,0.074-0.395,0.31-0.63c0.319-0.32,0.586-0.664,0.821-0.967
		c0.393-0.503,0.729-0.937,1.16-1.099c0.594-0.222,0.494-0.81,0.42-1.239c-0.068-0.432-0.139-0.839,0.17-1.146
		c0.525-0.526,1.213-0.612,1.763-0.681c0.207-0.026,0.39-0.049,0.542-0.091c0.305-0.082,0.523-0.313,0.609-0.632
		c0.106-0.412-0.025-0.882-0.342-1.199c-0.025-0.025-0.031-0.04-0.031-0.04c-0.004-0.059,0.148-0.227,0.238-0.327
		c0.217-0.244,0.488-0.547,0.488-0.954c0-0.375-0.134-0.805-0.291-1.303c-0.039-0.121-0.078-0.247-0.117-0.376
		c0.611-0.188,1.078-0.302,1.459-0.357c0.647-0.093,0.84,0.02,0.894,0.073c0.44,0.44,1.11,0.18,1.603-0.011
		c0.107-0.042,0.211-0.082,0.303-0.111c0.244-0.078,0.646,0.032,1.086,0.252c0.129-0.165,0.252-0.305,0.363-0.428
		c-0.625-0.324-1.212-0.461-1.613-0.331c-0.104,0.034-0.215,0.076-0.33,0.122c-0.373,0.145-0.838,0.325-1.029,0.131
		c-0.396-0.396-1.236-0.355-2.871,0.146c-0.049-0.207-0.093-0.42-0.122-0.636c-0.118-0.918-0.397-3.069-0.147-4.52
		c0.078-0.445,0.187-0.856,0.279-1.22c0.219-0.821,0.406-1.531,0.092-2.16c-0.313-0.626,0.006-1.328,0.627-2.255
		c0.4-0.602,0.855-2.465,1.131-3.778c-0.184,0.027-0.363,0.048-0.543,0.064c-0.269,1.233-0.695,2.912-1.032,3.419
		c-0.568,0.851-1.134,1.84-0.659,2.789c0.227,0.45,0.076,1.009-0.13,1.785c-0.099,0.373-0.21,0.797-0.29,1.266
		c-0.063,0.352-0.094,0.74-0.104,1.14c-0.561,0.008-1.226,0.068-1.653,0.497C91.291,36.93,90.936,37.048,90.67,37
		c-0.141-0.025-0.229-0.09-0.277-0.197c-0.063-0.138-0.058-0.292-0.053-0.454c0.014-0.345,0.025-0.816-0.693-1.072
		c-0.762-0.268-1.367-0.563-2.238-1.92c-0.95-1.48-2.034-1.697-3.289-1.948c-0.952-0.19-1.428-0.541-1.549-1.171
		c0.242-0.002,0.527-0.139,0.895-0.505c0.361-0.362,0.871-0.93,1.176-1.524c0.967-0.014,1.692-0.159,2.286-0.751
		c0.47-0.468,0.87-0.515,1.739-0.515c0.514,0,1.068-0.664,1.648-1.972c0.314-0.705,0.594-1.547,0.713-2.084
		c-0.267,0.12-0.397,0.569-0.732,0.685c-0.128,0.363-0.314,0.846-0.466,1.182c-0.584,1.309-1.015,1.655-1.163,1.655
		c-0.898,0-1.49,0.045-2.115,0.672c-0.381,0.381-0.861,0.552-1.701,0.588c0.047-0.178,0.063-0.354,0.043-0.522
		c-0.043-0.335-0.229-0.611-0.541-0.798c-0.49-0.295-0.795-0.768-0.762-1.177c0.034-0.415,0.412-0.647,0.723-0.77
		c0.76-0.298,1.447-0.917,2.051-1.463c0.438-0.396,0.935-0.843,1.168-0.843h1.644c0-0.005-0.002-0.011-0.002-0.016
		c-0.011-0.182,0.056-0.355,0.146-0.516l-1.938,0.013c-0.804,0.441-2.017,1.469-2.719,1.953l-2.399-5.025
		c0.061-0.05,0.127-0.088,0.18-0.146c0.285-0.316,0.508-0.781,0.783-1.454c0.176-0.428,0.344-0.832,0.553-1.111
		c0.306-0.407,0.568-1.134,0.849-1.903c0.278-0.767,0.565-1.56,0.858-1.909c0.57-0.677,1.082-0.825,2.104-1.001
		c0.657-0.113,1.904-0.121,2.874-0.109c-0.007-0.202-0.174-0.413-0.397-0.589c-0.897,0.004-1.953,0.067-2.566,0.172
		c-1.036,0.179-1.717,0.348-2.422,1.184c-0.354,0.421-0.646,1.223-0.952,2.07c-0.255,0.7-0.517,1.422-0.772,1.765
		c-0.25,0.334-0.438,0.79-0.619,1.229c-0.258,0.624-0.521,1.27-0.938,1.508c-0.402,0.23-1.248-0.175-1.993-0.532
		c-0.493-0.236-0.959-0.459-1.364-0.55c-1.449-0.321-2.697,0.21-3.34,1.423c-0.427,0.808-1.181,1.056-2.32,1.432
		c-0.562,0.185-1.196,0.395-1.918,0.711c-2.083,0.914-4.278,3.143-5.216,4.094c-0.082,0.084-0.153,0.156-0.212,0.215
		c-0.68,0.679-1.335,1.191-2.496,0.577c-0.741-0.392-0.47-1.153-0.008-2.186c0.122-0.271,0.236-0.528,0.296-0.748
		c0.25-0.917-0.794-1.635-1.418-2.065c-0.095-0.065-0.176-0.122-0.24-0.169c-0.255-0.191-0.733-0.416-1.239-0.654
		c-0.477-0.224-0.969-0.456-1.224-0.637c-0.156-0.111-0.162-0.275-0.138-0.649c0.021-0.322,0.045-0.724-0.177-1.103
		c-0.388-0.659-0.8-1.683-1.025-2.546c-0.187-0.717-0.769-1.583-1.417-1.792c-0.321-0.103-0.626-0.043-0.884,0.172
		c-0.224,0.186-0.425,0.261-0.601,0.223c-0.25-0.054-0.508-0.344-0.744-0.836c-0.304-0.632-0.155-2.425-0.057-3.611
		c0.003-0.04,0.006-0.127,0.01-0.213c-0.182,0.043-0.37,0.112-0.564,0.212c-0.11,1.363-0.214,3.126,0.129,3.843
		c0.319,0.664,0.683,1.033,1.112,1.126c0.344,0.075,0.699-0.038,1.055-0.334c0.115-0.096,0.236-0.119,0.379-0.074
		c0.404,0.13,0.901,0.793,1.065,1.419c0.236,0.906,0.671,1.984,1.082,2.682c0.14,0.238,0.123,0.511,0.104,0.799
		c-0.023,0.367-0.052,0.822,0.36,1.117c0.294,0.21,0.809,0.452,1.307,0.686c0.46,0.216,0.936,0.439,1.146,0.598
		c0.072,0.054,0.158,0.113,0.257,0.182c0.507,0.349,1.357,0.933,1.206,1.485c-0.049,0.179-0.156,0.417-0.269,0.67
		c-0.396,0.884-0.994,2.218,0.246,2.874c0.454,0.241,0.855,0.339,1.213,0.339c0.807,0,1.4-0.501,1.909-1.011
		c0.06-0.06,0.132-0.132,0.215-0.217c0.514-0.522,1.416-1.438,2.46-2.294c0.2,0.219,0.424,0.49,0.659,0.775
		c0.942,1.14,2.113,2.56,3.309,2.56c1.439,0,2.187,0.161,2.793,1.113c0.182,0.286,0.41,0.766,0.677,1.322
		c0.647,1.36,1.515,3.172,2.554,3.915c-0.214,0.139-0.474,0.237-0.818,0.321c-0.825,0.202-1.399,0.961-2.01,1.766
		c-0.289,0.382-0.586,0.776-0.91,1.1c-0.535,0.536-0.578,0.871-0.467,1.253c-1.33,0.002-2.938,0.652-3.988,1.256
		c-0.854,0.493-1.462,0.227-2.588-0.599c-1.154-0.846-2.029-1.011-3.344-0.626c-1.388,0.406-2.021,1.598-2.484,2.467
		c-0.198,0.373-0.369,0.695-0.549,0.874c-0.163,0.163-0.374,0.28-0.812,0.041c-0.39-0.212-0.841-0.649-1.27-1.078
		c-0.747-0.747-1.542-0.383-2.311-0.032c-0.398,0.182-0.811,0.371-1.269,0.458c-1.125,0.213-1.492-0.26-2.224-1.203
		c-0.079-0.101-0.16-0.206-0.246-0.314c-0.426-0.537-0.878-0.892-1.31-1.126c0.476-0.119,0.907-0.385,0.907-1.205
		c0-0.971,0.215-1.564,0.767-2.117c0.781-0.781,0.13-2.201-0.186-2.775c-0.096-0.174-0.211-0.362-0.332-0.562
		c-0.402-0.659-0.903-1.478-0.903-2.152c0-0.263,0.055-0.582,0.113-0.919c0.148-0.871,0.318-1.858-0.444-2.273
		c-0.394-0.215-0.847-0.292-1.286-0.366c-0.563-0.096-1.094-0.187-1.458-0.549c-0.48-0.48-0.339-0.741,0.055-1.336
		c0.044-0.067,0.09-0.135,0.135-0.206c0.104-0.162,0.309-0.382,0.525-0.616c0.635-0.682,1.504-1.617,0.821-2.299
		c-0.15-0.15-0.335-0.316-0.533-0.491c-0.476-0.423-1.194-1.063-1.204-1.405c-0.001-0.037,0.006-0.069,0.046-0.109
		c0.311-0.311,0.623-0.645,0.804-0.989c0.309-0.586,0.109-0.973-0.112-1.194c-0.252-0.252-0.787-0.719-1.241-1.098
		c-0.142,0.131-0.278,0.253-0.408,0.362c0.448,0.373,1.026,0.867,1.273,1.113c0.107,0.108,0.184,0.251,0.017,0.568
		c-0.148,0.281-0.428,0.58-0.708,0.861c-0.138,0.137-0.208,0.311-0.203,0.501c0.016,0.572,0.71,1.19,1.382,1.788
		c0.191,0.169,0.372,0.33,0.511,0.47c0.061,0.06,0.187,0.188-0.044,0.588c-0.179,0.313-0.504,0.662-0.791,0.97
		c-0.234,0.251-0.455,0.489-0.584,0.692c-0.043,0.068-0.087,0.134-0.129,0.198c-0.373,0.563-0.796,1.2,0.012,2.007
		c0.483,0.484,1.125,0.592,1.745,0.698c0.414,0.07,0.804,0.136,1.12,0.308c0.397,0.216,0.323,0.848,0.173,1.716
		c-0.062,0.36-0.12,0.701-0.12,1.009c0,0.824,0.543,1.715,0.98,2.43c0.118,0.194,0.23,0.377,0.32,0.541
		c0.415,0.754,0.705,1.712,0.275,2.142c-0.646,0.647-0.923,1.393-0.923,2.494c0,0.599-0.237,0.663-0.923,0.761
		c-0.147,0.021-0.3,0.043-0.458,0.076c-0.253-0.051-0.478-0.066-0.657-0.066c-0.742,0-1.878,0.539-2.63,0.895
		c-0.172,0.082-0.32,0.152-0.435,0.203c-0.567,0.248-1.623,0.709-3.563,0.862c-1.843,0.145-3.577-0.13-4.97-0.351l-0.192-0.03
		c-1.081-0.171-2.062,0.492-3.1,1.194c-0.478,0.324-0.972,0.658-1.476,0.903c-0.955,0.465-1.689,0.244-2.294-0.041
		c-0.044,0.188-0.094,0.361-0.151,0.516c0.382,0.172,0.886,0.329,1.389,0.329c0.379,0,0.805-0.088,1.29-0.325
		c0.538-0.262,1.048-0.607,1.542-0.941c0.948-0.641,1.845-1.247,2.718-1.109l0.192,0.03c1.421,0.226,3.189,0.506,5.095,0.356
		c2.03-0.16,3.14-0.645,3.735-0.905c0.123-0.053,0.275-0.125,0.451-0.209c0.226-0.107,0.503-0.239,0.795-0.366
		c0.167,0.201,0.327,0.458,0.495,0.727c0.232,0.374,0.472,0.759,0.77,1.057c0.442,0.442,0.396,1.655,0.041,2.205
		c-0.669,1.033-0.657,1.908,0.035,2.6c0.742,0.742,1.232,1.232,1.75,2.416c0.242,0.554,0.246,1.015,0.251,1.502
		c0.005,0.537,0.01,1.092,0.328,1.77c0.371,0.793,1.103,1.14,1.81,1.475c0.492,0.233,1,0.475,1.393,0.867
		c0.836,0.836-0.469,3.51-1.114,4.156c-0.388,0.389-0.6,0.977-0.823,1.599c-0.21,0.584-0.429,1.189-0.79,1.551
		c-0.849,0.849-1,1.392-1,2.494c0,1.084-0.094,2.489-0.801,3.861c-0.135-0.043-0.281-0.074-0.439-0.092l-0.187-0.021
		c-1.476-0.163-1.476-0.163-3.065-1.045l-0.028-0.016c-1.656-0.92-4.637-2.406-6.002-2.021c-1.388,0.391-1.819,1.213-2.304,4.404
		c-0.071,0.473-0.208,0.777-0.404,0.904c-0.275,0.179-0.734,0.052-1.22-0.083c-0.345-0.095-0.735-0.292-1.113-0.481
		c-0.59-0.296-1.2-0.604-1.763-0.604c-0.893,0-1.64,0.756-2.241,1.363c-0.047,0.046-0.092,0.092-0.137,0.137
		c-0.323,0.322-0.75,0.522-1.402,0.63c0.001,0.181,0.005,0.363,0.009,0.539c0.763-0.115,1.328-0.351,1.769-0.792
		c0.045-0.045,0.092-0.092,0.139-0.139c0.531-0.537,1.193-1.205,1.863-1.205c0.436,0,0.989,0.279,1.523,0.547
		c0.4,0.202,0.815,0.41,1.21,0.519c0.578,0.16,1.176,0.326,1.651,0.017c0.334-0.217,0.544-0.633,0.642-1.271
		c0.474-3.113,0.856-3.67,1.921-3.97c0.851-0.239,2.944,0.499,5.599,1.974l0.029,0.016c1.667,0.926,1.697,0.936,3.266,1.11
		l0.187,0.02c1.022,0.113,1.387,0.992,1.709,1.767c0.171,0.412,0.319,0.767,0.552,1c0.705,0.705,1.727,0.846,3.146,0.846
		c0.758,0,0.796,0.295,0.873,0.883c0.038,0.286,0.079,0.609,0.238,0.899c0.28,0.509,0.85,0.631,1.455,0.76
		c0.511,0.111,1.09,0.235,1.625,0.6c0.951,0.649,0.941,1.086,0.925,1.811c-0.002,0.101-0.004,0.204-0.004,0.312
		c0,0.857-0.675,1.972-1.39,2.292c-0.642,0.289-1.837,0.825-1.837,1.934c0,0.555-0.578,1.079-1.087,1.541
		c-0.146,0.133-0.284,0.258-0.41,0.384c-0.634,0.634-0.881,1.662-0.602,2.501c0.205,0.614,1.116,0.959,2.172,1.359
		c0.377,0.142,0.767,0.29,1.121,0.451c0.624,0.284,0.546,0.723,0.327,1.609c-0.1,0.405-0.214,0.864-0.214,1.337
		c0,0.341,0.026,0.726,0.052,1.098c0.067,0.96,0.15,2.156-0.309,2.343c-0.286,0.117-0.618,0.195-0.97,0.279
		c-0.653,0.155-1.33,0.315-1.768,0.752c-0.32,0.32-0.537,0.283-0.97,0.212c-0.207-0.034-0.442-0.072-0.724-0.072
		c-0.704,0-1.086,0.922-1.456,1.814c-0.176,0.428-0.359,0.869-0.521,1.031c-0.679,0.678-0.759,1.441-0.209,1.99
		c0.122,0.121,0.161,0.297,0.107,0.481c-0.135,0.472-0.788,0.886-1.746,1.106c-1.949,0.45-3.569,1.709-4.751,2.627l-0.192,0.149
		c-0.796,0.616-1.784,0.893-2.657,1.136c-0.376,0.106-0.731,0.205-1.04,0.325c-0.451,0.172-1.065,0.517-1.715,0.882
		c-0.803,0.45-1.713,0.96-2.338,1.147c-0.775,0.233-0.804,0.673-0.826,0.996c-0.017,0.258-0.026,0.398-0.361,0.555
		c-0.501,0.231-1.384-0.562-2.237-1.33c-0.493-0.444-1.003-0.903-1.501-1.225c-0.792-0.513-1.343-0.547-1.787-0.577
		c-0.376-0.022-0.625-0.039-0.936-0.35c-0.572-0.571-1.393-0.821-2.125-1.027c-0.092,0.158-0.196,0.311-0.309,0.455
		c0.035,0.011,0.07,0.022,0.082,0.025c0.749,0.208,1.457,0.405,1.975,0.924c0.453,0.453,0.874,0.48,1.28,0.504
		c0.401,0.026,0.856,0.054,1.529,0.491c0.464,0.3,0.958,0.745,1.436,1.175c0.858,0.772,1.676,1.507,2.401,1.507
		c0.142,0,0.281-0.028,0.416-0.09c0.625-0.288,0.652-0.718,0.671-1.004c0.018-0.27,0.025-0.393,0.446-0.519
		c0.681-0.204,1.578-0.707,2.445-1.193c0.633-0.354,1.23-0.689,1.646-0.85c0.285-0.109,0.628-0.205,0.992-0.307
		c0.564-0.158,1.175-0.329,1.766-0.595c0.321,0.11,0.859,0.398,1.428,0.704c1.149,0.615,2.452,1.314,3.275,1.314
		c0.612,0,1.708,0.083,2.768,0.164c1.037,0.077,2.016,0.152,2.56,0.152c0.642,0,1.066,0.264,1.604,0.601
		c0.285,0.179,0.608,0.381,0.991,0.551c0.644,0.286,1.162,0.101,1.54-0.036c0.372-0.132,0.481-0.151,0.613-0.02
		c0.183,0.183,0.146,0.294-0.11,0.735c-0.146,0.251-0.311,0.538-0.393,0.896c-0.223,0.983,0.028,2.516,0.934,3.421
		c0.894,0.893,1.562,1.271,2.75,1.56c1.098,0.264,1.49,0.629,1.831,1.208c0.365,0.622,1.313,1.768,2.546,2.12
		c1.099,0.314,1.503,0.525,1.376,1.512c-0.116,0.892-0.055,2.237-0.01,3.221c0.013,0.294,0.025,0.556,0.029,0.752
		c-0.781,0.474-1.592,0.888-2.062,0.971c-0.612,0.106-1.491-0.042-2.267-0.173c-0.495-0.083-0.922-0.155-1.238-0.155
		c-0.848,0-2.999,0.688-3.986,1.201c-0.918,0.478-2.876,0.478-3.817,0.478c-0.213,0-0.431-0.016-0.662-0.032
		c-0.787-0.056-1.678-0.12-2.336,0.539c-0.735,0.735-1.093,1.524-1.093,2.413c0,0.074-0.018,0.188-0.171,0.294
		c-0.326,0.226-1.106,0.286-1.966-0.037c-1.246-0.467-2.966-0.442-4.846,0.071c-1.425,0.388-3.445,0.321-6.002-0.201
		c-1.609-0.327-3.238,0.01-4.428,0.254c-0.421,0.088-0.784,0.162-1.079,0.195l-0.018,0.002c-0.969,0.11-2.592,0.293-2.735-0.364
		c-0.043-0.197-0.055-0.416-0.067-0.646c-0.041-0.749-0.093-1.679-1.353-2.124c-0.599-0.21-1.192-0.266-1.765-0.32
		c-0.833-0.078-1.552-0.147-2.077-0.669c-0.374-0.375-0.662-0.853-0.939-1.314c-0.425-0.707-0.864-1.437-1.626-1.817
		c-0.241-0.121-0.495-0.232-0.741-0.34c-0.596-0.261-1.271-0.557-1.354-0.85c-0.008-0.029-0.034-0.12,0.087-0.293
		c0.208-0.3,0.341-0.579,0.458-0.826c0.239-0.503,0.383-0.806,0.979-0.939c0.664-0.148,1.966-0.585,2.142-1.191
		c0.054-0.183,0.004-0.364-0.138-0.505c-0.129-0.13-0.287-0.242-0.438-0.35c-0.372-0.263-0.693-0.491-0.693-0.945
		c0-0.304,0.13-0.596,0.268-0.906c0.194-0.436,0.414-0.931,0.314-1.555c-0.048-0.303-0.238-0.804-0.451-1.282
		c-0.143,0.08-0.299,0.132-0.474,0.153c0.216,0.481,0.354,0.938,0.398,1.214c0.075,0.468-0.095,0.85-0.274,1.253
		c-0.155,0.347-0.315,0.706-0.315,1.124c0,0.73,0.51,1.092,0.918,1.38c0.14,0.099,0.271,0.193,0.367,0.288
		c-0.079,0.172-0.757,0.584-1.739,0.803c-0.85,0.189-1.091,0.695-1.346,1.23c-0.114,0.239-0.231,0.487-0.415,0.75
		c-0.175,0.254-0.23,0.503-0.163,0.744c0.152,0.536,0.848,0.84,1.653,1.193c0.24,0.105,0.488,0.212,0.716,0.327
		c0.624,0.312,1.004,0.946,1.408,1.615c0.294,0.49,0.599,0.997,1.02,1.417c0.66,0.66,1.506,0.74,2.403,0.825
		c0.541,0.05,1.1,0.104,1.638,0.292c0.925,0.325,0.957,0.91,0.998,1.649c0.013,0.242,0.027,0.493,0.079,0.731
		c0.155,0.715,0.922,0.896,1.792,0.896c0.506,0,1.047-0.062,1.523-0.115l0.019-0.002c0.318-0.037,0.692-0.114,1.125-0.203
		c1.145-0.237,2.712-0.559,4.215-0.254c0.579,0.119,1.132,0.214,1.659,0.286c-0.319,1.095-1.409,4.18-4.083,6.511
		c-2.76,2.404-17.729,14.349-19.37,15.511c-1.19,0.841-3.786,2.224-6.266,3.193c0.005,0.17,0.012,0.391,0.021,0.647
		c2.602-0.994,5.302-2.521,6.553-3.405c1.646-1.166,16.648-13.137,19.413-15.547c2.847-2.479,3.968-5.78,4.269-6.845
		c1.634,0.183,2.992,0.129,4.054-0.16c1.746-0.477,3.393-0.507,4.518-0.085c0.94,0.352,1.927,0.342,2.457-0.024
		c0.258-0.18,0.4-0.44,0.4-0.733c0-0.739,0.307-1.406,0.936-2.035c0.487-0.487,1.185-0.437,1.922-0.385
		c0.229,0.017,0.467,0.033,0.699,0.033c1.059,0,3.03,0,4.063-0.536c0.021-0.012,0.045-0.023,0.067-0.036c0,0.001,0,0.001,0,0.001
		c0.279,0.85,0.569,1.727,1.867,2.235c0.541,0.211,0.631,0.384,0.644,0.45c0.041,0.193-0.294,0.528-0.563,0.796
		c-0.087,0.087-0.19,0.168-0.309,0.264c-0.672,0.534-1.591,1.266-1.948,4.524c-0.269,2.458,0.699,5.509,2.875,9.066l0.031,0.051
		c0.137,0.226,0.253,0.437,0.366,0.64c0.408,0.74,0.731,1.324,1.468,1.324c0.635,0,1.228,0.594,1.705,1.07
		c0.115,0.113,0.221,0.238,0.323,0.359c0.362,0.426,0.735,0.865,1.472,0.865c0.359,0,0.627,0.35,1.033,0.92
		c0.227,0.317,0.485,0.682,0.815,1.01c0.785,0.785-0.265,2.004-0.753,2.49c-0.197,0.196-0.292,0.428-0.284,0.684
		c0.02,0.648,0.711,1.26,1.215,1.705c0.114,0.102,0.212,0.187,0.28,0.255c0.472,0.47,1.716,1.716,2.326,3.104
		c0.722,1.637,3.938,4.879,4.301,5.243c0.91,0.909,1.52,0.899,2.437,0.886c0.123-0.002,0.255-0.004,0.396-0.004
		c1,0,1.338,0.396,1.338,1.569c0,0.794-0.246,1.606-0.483,2.396c-0.146,0.482-0.284,0.939-0.37,1.396
		c-0.287,1.497,0.809,2.139,2.271,2.814c0.489,0.229,0.515,0.365,0.515,0.367c0.008,0.114-0.447,0.405-0.643,0.527
		c-0.247,0.158-0.506,0.322-0.692,0.512c-0.76,0.76-0.456,2.084,0.304,2.844c0.512,0.51-0.113,1.844-0.99,2.722
		c-0.996,0.997-0.07,3.007,0.545,4.337c0.051,0.113,0.102,0.223,0.146,0.32c0.235,0.521,0.229,0.725,0.222,0.779
		c-0.061,0.004-0.263-0.018-0.76-0.313c-1.109-0.667-3.182-2.505-4.652-3.976c-0.905-0.906-2.164-1.027-3.057-0.973
		c-1.041,0.066-2.146,0.417-2.955,0.936c-0.429,0.272-0.779,0.561-1.117,0.836c-0.817,0.668-1.524,1.244-3.083,1.479
		c-1.796,0.27-4.021,0.959-5.807,1.514c-0.524,0.162-1.018,0.316-1.458,0.444c-1.758,0.517-4.365,0.511-6.089,0.507
		c-0.151,0-0.296,0-0.433,0c-1.741,0-3.445,0.234-4.674,0.645c-0.98,0.326-12.091,2.834-17.045,3.918
		c0.108,0.139,0.249,0.283,0.427,0.451c5.117-1.125,15.823-3.541,16.787-3.863c1.177-0.393,2.819-0.616,4.505-0.616
		c0.137,0,0.281,0,0.432,0c1.756,0.005,4.408,0.013,6.241-0.526c0.443-0.129,0.939-0.285,1.464-0.447
		c1.77-0.549,3.973-1.232,5.729-1.495c1.703-0.257,2.499-0.906,3.341-1.593c0.327-0.268,0.665-0.543,1.065-0.799
		c1.379-0.884,4.001-1.386,5.35-0.037c1.494,1.496,3.606,3.367,4.754,4.058c0.435,0.259,1.05,0.567,1.395,0.263
		c0.346-0.307,0.112-0.947-0.093-1.404c-0.047-0.101-0.097-0.207-0.147-0.324c-0.521-1.123-1.387-3.004-0.652-3.737
		c1.099-1.099,1.771-2.696,0.992-3.476c-0.564-0.563-0.814-1.578-0.305-2.09c0.146-0.146,0.379-0.295,0.604-0.438
		c0.472-0.299,0.914-0.581,0.886-1.016c-0.024-0.399-0.479-0.655-0.817-0.813c-1.572-0.729-2.072-1.213-2.005-2.017
		c0.048,0.002,0.097,0.002,0.148,0.002c2.159,0.015,4.54-0.053,5.485-0.996c0.313-0.311,0.541-0.613,0.744-0.883
		c0.495-0.653,0.793-1.049,1.766-1.049c0.3,0,0.564,0.01,0.804,0.021c1.017,0.042,1.687,0.066,2.599-0.846
		c0.754-0.754,2.204-1.16,3.371-1.489c0.344-0.099,0.667-0.188,0.942-0.281c0.459-0.151,0.901-0.43,1.37-0.728
		c0.787-0.491,1.602-1.002,2.464-0.868c0.745,0.114,1.495-0.003,2.097-0.099c0.561-0.088,1.088-0.172,1.256-0.002
		c0.291,0.291,0.271,0.353-0.287,0.91c-0.351,0.35-0.463,0.92-0.271,1.383c0.172,0.41,0.548,0.655,1.01,0.655
		c0.804,0,3.654,0.581,5.341,1.536c1.049,0.594,2.574,1.232,3.92,1.799c0.875,0.366,1.631,0.684,2.057,0.906
		c0.84,0.438,0.982,1.188,1.121,1.912c0.02,0.107,0.039,0.211,0.062,0.313c0.138,0.637,0.823,1.146,1.485,1.637
		c0.295,0.221,0.572,0.426,0.767,0.619c0.501,0.5,1.017,1.311,0.563,3.133c-0.361,1.445-0.244,3.182-0.164,4.328
		c0.021,0.326,0.041,0.604,0.041,0.785c0,0.935,0.078,2.254,0.766,2.94c0.314,0.315,1.639,1.351,3.041,2.446
		c1.438,1.125,3.066,2.396,3.441,2.775c0.789,0.786,1.498,0.877,2.318,0.981l0.072,0.01c0.563,0.073,0.786,0.229,0.809,0.354
		c0.041,0.225-0.344,0.693-1.043,1.066c-0.301,0.161-0.687,0.327-1.098,0.504c-1.294,0.555-2.906,1.248-3.785,2.536
		c-0.604,0.881-1.309,2.55-1.813,3.953c0.237-0.112,0.471-0.226,0.7-0.336c0.482-1.267,1.09-2.642,1.552-3.315
		C124.434,193.771,125.966,193.113,127.197,192.583z M88.373,50.526c-0.364,0.364-0.52,0.733-0.46,1.095
		c0.081,0.477,0.517,0.893,1.371,1.311c0.731,0.357,1.087,1.185,1.087,2.53c0,0.395-0.073,2.435-1.505,3.867
		c-1.427,1.427-0.623,4.649-0.048,5.752c0.515,0.985,1.828,2.899,2.697,4.166c0.146,0.211,0.275,0.401,0.387,0.56
		c0.279,0.411,0.343,0.788,0.322,1.159c-1.104,0.272-2.172,0.759-2.172,2.105c0,0.256,0.021,0.483,0.038,0.703
		c0.06,0.661,0.097,1.097-0.446,1.639c-0.849,0.848-1.535,2.767-1.535,4.276c0,0.745,0.211,1.366,0.42,1.966
		c0.183,0.536,0.354,1.041,0.354,1.586c0,0.773,0.304,1.178,0.566,1.535c0.194,0.26,0.36,0.485,0.428,0.85
		c0.122,0.659,0.071,1.184,0.029,1.607c-0.007,0.056-0.011,0.109-0.017,0.16c-1.429-0.191-2.125,0.646-2.597,1.213
		c-0.093,0.112-0.181,0.22-0.262,0.298c-0.063,0.065-0.158,0.153-0.267,0.254c-0.672,0.63-1.963,1.842-2.547,3.23
		c-0.13-0.455-0.279-0.97-0.428-1.476c-0.318-1.09-0.757-2.583-0.757-2.808c0-0.29-0.214-0.552-0.572-0.701
		c-0.389-0.161-0.931-0.172-1.267,0.166c-0.112,0.111-0.547,0.31-2.146-0.259c-0.377-0.134-1.117-0.291-1.904-0.457
		c-1.016-0.215-2.168-0.459-2.623-0.673c-0.528-0.249-0.896-0.684-1.283-1.143c-0.18-0.211-0.363-0.43-0.568-0.635
		c-0.128-0.127-0.271-0.291-0.422-0.464c-0.632-0.719-1.416-1.614-2.438-1.614c-1.026,0-1.883-0.858-2.396-1.371
		c-0.578-0.578-0.848-1.262-0.848-2.149c0-0.293,0.049-0.653,0.101-1.034c0.14-1.026,0.299-2.188-0.377-2.865
		c-0.401-0.4-0.659-0.993-0.91-1.565c-0.23-0.529-0.449-1.029-0.772-1.353c-0.282-0.282-0.958-1.168-1.612-2.024
		c-0.761-0.996-1.548-2.027-1.949-2.427c-0.491-0.492-1.045-1.601-1.14-2.053c0.01,0.006,0.02,0.012,0.03,0.019
		c1.03,0.655,3.068,1.427,4.05,1.196c0.464-0.109,0.665-0.401,0.826-0.636c0.187-0.272,0.322-0.47,0.869-0.47h0.083
		c0.889,0,1.594,0,1.858-0.436c0.148-0.244,0.116-0.561-0.097-0.969c-0.109-0.207-0.218-0.395-0.315-0.56
		c-0.422-0.724-0.58-1.041-0.238-1.601c0.428-0.701,0.297-1.429,0.181-2.072c-0.047-0.266-0.093-0.516-0.093-0.738
		c0-0.674,0.053-1.064,1.174-1.859l0.141-0.1c2.626-1.863,5.36-3.855,6.058-4.724c0.936,0.14,1.768-0.067,2.504-0.252
		c0.447-0.111,0.869-0.217,1.232-0.217c0.773,0,1.783,0.291,3.003,0.865c0.269,0.125,0.552,0.373,0.827,0.611
		c0.441,0.383,0.932,0.809,1.469,0.809c0.129,0,0.258-0.024,0.393-0.08c0.742-0.306,0.932-1.133,1.08-1.797
		c0.037-0.164,0.072-0.321,0.111-0.454c0.094,0.094,0.217,0.184,0.387,0.193c0.166,0.008,0.33-0.068,0.486-0.225l1.459-1.459
		c0.371-0.371,0.984-0.496,1.459-0.538C88.7,50.174,88.544,50.354,88.373,50.526z M76.393,28.41
		c-0.272-0.572-0.509-1.065-0.709-1.378c-0.801-1.26-1.896-1.36-3.242-1.36c-0.94,0-2.069-1.368-2.896-2.366
		c-0.23-0.279-0.45-0.545-0.653-0.769c0.7-0.542,1.446-1.034,2.171-1.352c0.699-0.307,1.32-0.512,1.871-0.694
		c1.219-0.401,2.099-0.692,2.627-1.688c0.754-1.424,2.174-1.28,2.75-1.153c0.349,0.078,0.785,0.289,1.252,0.511
		c0.802,0.385,1.629,0.779,2.256,0.606c0.234,0.606,2.347,4.921,2.397,5.124c-0.862,0.339-1.138,0.927-1.165,1.238
		c-0.052,0.616,0.35,1.275,1.02,1.679c0.175,0.104,0.266,0.234,0.285,0.407c0.061,0.485-0.416,1.286-1.271,2.144
		c-0.301,0.298-0.457,0.356-0.538,0.351c-0.09-0.005-0.202-0.109-0.334-0.229c-0.179-0.162-0.401-0.366-0.729-0.482
		c-1.032-0.365-1.521,0.806-1.986,1.938l-0.08,0.19c-0.191,0.466-0.355,0.802-0.552,1.054C77.912,31.593,77.04,29.765,76.393,28.41z
		 M74.857,37.089c-0.168-0.411-0.213-0.522,0.24-0.975c0.348-0.349,0.657-0.758,0.959-1.154c0.551-0.726,1.066-1.413,1.711-1.569
		c1.207-0.295,1.607-0.796,2.135-2.061l0.08-0.191c0.518-1.248,0.814-1.815,1.315-1.638c0.229,0.081,0.394,0.229,0.552,0.373
		c0.051,0.046,0.1,0.09,0.149,0.13c0.048,1.052,0.688,1.667,2.007,1.93c1.229,0.246,2.115,0.422,2.943,1.713
		c0.879,1.366,1.533,1.791,2.511,2.135c0.354,0.125,0.351,0.232,0.34,0.55c-0.007,0.196-0.015,0.441,0.099,0.694
		c0.123,0.266,0.358,0.444,0.67,0.5c0.07,0.013,0.145,0.019,0.218,0.019c0.386,0,0.804-0.167,1.08-0.441
		c0.286-0.285,0.812-0.333,1.271-0.341c0.018,1.18,0.174,2.375,0.254,3.006c0.078,0.591,0.25,1.136,0.398,1.617
		c0.145,0.456,0.266,0.85,0.266,1.143c0,0.203-0.178,0.404-0.352,0.598c-0.229,0.254-0.607,0.679-0.188,1.099
		c0.182,0.179,0.264,0.46,0.205,0.685c-0.027,0.094-0.087,0.214-0.234,0.254c-0.119,0.033-0.28,0.053-0.469,0.076
		c-0.601,0.075-1.418,0.178-2.072,0.833c-0.502,0.501-0.396,1.143-0.316,1.611c0.085,0.515,0.061,0.598-0.083,0.651
		c-0.514,0.192-0.887,0.625-1.264,1.103c-0.714,0.01-1.666,0.111-2.271,0.715l-1.459,1.458c-0.041,0.042-0.068,0.059-0.082,0.065
		c-0.027-0.021-0.074-0.077-0.104-0.11c-0.084-0.103-0.215-0.259-0.419-0.225c-0.224,0.035-0.312,0.265-0.349,0.363
		c-0.072,0.19-0.123,0.415-0.178,0.653c-0.13,0.572-0.275,1.221-0.763,1.422c-0.361,0.148-0.752-0.157-1.31-0.64
		c-0.305-0.262-0.615-0.534-0.949-0.69c-1.291-0.608-2.379-0.917-3.229-0.917c-0.429,0-0.883,0.114-1.36,0.234
		c-0.631,0.157-1.332,0.332-2.084,0.266c0.443-0.916,1.162-2.893,0.271-3.785c-0.555-0.552-1.482-0.881-2.382-1.199
		c-0.53-0.188-1.031-0.365-1.443-0.58c-0.146-0.076-0.298-0.152-0.442-0.227c-0.582-0.292-1.38-0.693-1.426-0.976
		c-0.01-0.055,0.026-0.124,0.106-0.203c0.297-0.297,0.762-0.563,1.254-0.846c0.585-0.336,1.248-0.716,1.762-1.231
		c0.096-0.095,0.199-0.196,0.311-0.303c0.974-0.947,2.439-2.377,2.439-4.04C75.178,37.875,74.992,37.421,74.857,37.089z
		 M60.331,72.716c-0.621-0.424-1.283-0.566-1.814-0.68c-0.581-0.125-0.945-0.215-1.099-0.496c-0.111-0.202-0.143-0.449-0.177-0.711
		c-0.074-0.569-0.174-1.348-1.401-1.348c-1.535,0-2.26-0.181-2.769-0.69c-0.158-0.158-0.294-0.483-0.437-0.828
		c-0.247-0.593-0.56-1.346-1.22-1.772c0.75-1.467,0.851-2.947,0.851-4.088c0-0.971,0.116-1.389,0.844-2.116
		c0.446-0.446,0.684-1.108,0.914-1.749c0.203-0.564,0.395-1.098,0.699-1.402c0.774-0.774,2.267-3.758,1.114-4.91
		c-0.457-0.458-1.008-0.719-1.541-0.972c-0.679-0.322-1.266-0.6-1.556-1.22c-0.269-0.573-0.273-1.046-0.277-1.549
		c-0.005-0.519-0.01-1.056-0.296-1.71c-0.558-1.275-1.104-1.822-1.861-2.578c-0.503-0.503-0.492-1.118,0.036-1.933
		c0.478-0.739,0.521-2.239-0.112-2.873c-0.255-0.254-0.479-0.614-0.694-0.961c-0.145-0.233-0.285-0.457-0.434-0.655
		c0.407-0.154,0.803-0.268,1.092-0.268c0.675,0,1.666,0.235,2.557,1.358c0.084,0.107,0.165,0.211,0.243,0.311
		c0.726,0.935,1.299,1.673,2.743,1.399c0.523-0.099,0.984-0.31,1.393-0.497c0.806-0.368,1.248-0.539,1.711-0.076
		c0.476,0.475,0.939,0.922,1.391,1.169c0.563,0.308,1.049,0.264,1.445-0.132c0.236-0.236,0.425-0.59,0.643-1
		c0.441-0.831,0.991-1.864,2.163-2.207c1.013-0.296,1.737-0.293,2.879,0.544c1.064,0.78,1.974,1.322,3.173,0.63
		c0.845-0.487,2.587-1.26,3.924-1.18c0.099,0.27,0.187,0.611,0.187,1.117c0,1.438-1.371,2.774-2.278,3.658
		c-0.11,0.109-0.218,0.212-0.313,0.308c-0.464,0.465-1.066,0.811-1.65,1.146c-0.522,0.3-1.02,0.584-1.365,0.932
		c-0.207,0.207-0.293,0.43-0.255,0.664c0.089,0.552,0.842,0.93,1.713,1.368c0.146,0.073,0.294,0.148,0.438,0.223
		c0.442,0.231,0.984,0.424,1.51,0.609c0.845,0.299,1.719,0.607,2.184,1.075c0.666,0.665-0.033,2.629-0.536,3.484
		c-0.45,0.768-4.639,3.738-6.015,4.715l-0.141,0.1c-1.204,0.854-1.398,1.376-1.398,2.294c0,0.27,0.049,0.543,0.102,0.833
		c0.104,0.576,0.211,1.172-0.111,1.7C66,62.606,66.333,63.177,66.755,63.9c0.098,0.168,0.2,0.342,0.302,0.539
		c0.131,0.25,0.145,0.395,0.114,0.446c-0.108,0.179-0.856,0.178-1.402,0.178h-0.083c-0.828,0-1.095,0.389-1.309,0.701
		c-0.142,0.207-0.245,0.356-0.508,0.418c-0.755,0.178-2.61-0.471-3.641-1.127c-0.426-0.271-0.65-0.161-0.762-0.021
		c-0.076,0.094-0.276,0.345,0.253,1.436c0.282,0.58,0.657,1.147,0.956,1.447c0.375,0.375,1.151,1.391,1.902,2.373
		c0.695,0.91,1.352,1.77,1.66,2.078c0.252,0.252,0.451,0.707,0.661,1.188c0.094,0.215,0.192,0.44,0.302,0.663
		c-1.648-0.375-3.021,0.086-3.707,0.403C61.482,73.988,61.336,73.402,60.331,72.716z M67.311,116.41
		c-1.072-0.305-1.908-1.324-2.233-1.876c-0.467-0.794-1.054-1.188-2.165-1.456c-1.092-0.264-1.676-0.596-2.499-1.419
		c-0.818-0.817-0.955-2.204-0.791-2.925c0.063-0.281,0.201-0.518,0.334-0.748c0.229-0.397,0.515-0.891,0.025-1.38
		c-0.384-0.385-0.82-0.229-1.169-0.104c-0.342,0.123-0.696,0.248-1.144,0.049c-0.349-0.155-0.642-0.338-0.925-0.516
		c-0.561-0.352-1.092-0.683-1.887-0.683c-0.524,0-1.494-0.073-2.521-0.15c-1.069-0.081-2.175-0.164-2.807-0.164
		c-0.69,0-1.984-0.694-3.024-1.251c-0.396-0.212-0.76-0.408-1.067-0.555c0.157-0.094,0.312-0.198,0.461-0.314l0.194-0.15
		c1.143-0.888,2.709-2.104,4.544-2.529c1.598-0.369,2.026-1.084,2.139-1.478c0.106-0.372,0.015-0.748-0.244-1.007
		c-0.424-0.425-0.12-0.906,0.209-1.236c0.237-0.237,0.422-0.684,0.637-1.202c0.259-0.628,0.615-1.485,0.963-1.485
		c0.239,0,0.441,0.033,0.638,0.065c0.473,0.077,0.919,0.15,1.433-0.362c0.331-0.331,0.933-0.473,1.514-0.61
		c0.356-0.084,0.725-0.171,1.049-0.304c0.815-0.333,0.726-1.625,0.639-2.874c-0.026-0.38-0.051-0.738-0.051-1.061
		c0-0.407,0.101-0.814,0.199-1.208c0.202-0.816,0.431-1.743-0.624-2.223c-0.37-0.167-0.768-0.318-1.153-0.464
		c-0.811-0.307-1.729-0.655-1.854-1.029c-0.185-0.552-0.082-1.4,0.473-1.955c0.117-0.117,0.25-0.237,0.391-0.365
		c0.592-0.537,1.263-1.145,1.263-1.936c0-0.633,0.609-1.036,1.522-1.447c0.908-0.408,1.705-1.706,1.705-2.779
		c0-0.02,0-0.038,0-0.058c0.488-0.257,2.145-0.994,4.097-0.341c0.102,0.146,0.213,0.282,0.335,0.406
		c0.49,0.489,0.35,1.513,0.227,2.416c-0.055,0.398-0.107,0.776-0.107,1.105c0,1.039,0.319,1.842,1.004,2.526
		c0.571,0.571,1.526,1.527,2.773,1.527c0.778,0,1.477,0.794,2.035,1.432c0.158,0.18,0.309,0.349,0.446,0.49
		c0.188,0.189,0.366,0.399,0.538,0.602c0.408,0.482,0.83,0.982,1.465,1.281c0.512,0.24,1.646,0.48,2.741,0.712
		c0.769,0.163,1.491,0.316,1.835,0.437c1.426,0.508,2.285,0.549,2.701,0.134c0.152-0.155,0.462-0.143,0.686-0.051
		c0.168,0.069,0.243,0.166,0.243,0.209c0,0.287,0.296,1.311,0.776,2.957c0.246,0.845,0.504,1.715,0.646,2.277
		c-0.533,1.665-3.234,6.378-4.722,8.975c-0.479,0.838-0.86,1.501-1.069,1.886c-0.939,1.727-1.193,2.611-1.193,4.109
		c0,0.47,0.123,0.823,0.379,1.075c0.476,0.472,1.283,0.464,2.137,0.455c0.115,0,0.23-0.002,0.348-0.002
		c1.28,0,3.246,0.537,4.016,1.307c0.683,0.682-0.028,2.225-0.643,2.839c-0.146,0.144-0.273,0.293-0.4,0.437
		c-0.448,0.513-0.805,0.919-1.536,0.919c-1.199,0-1.945,0.748-2.812,1.611c-0.527,0.528-1.681,0.791-2.793,1.046
		c-0.521,0.12-1.017,0.233-1.455,0.372c-0.457,0.147-0.728,0.386-0.806,0.711c-0.174,0.713,0.661,1.546,1.468,2.353
		c0.239,0.241,0.361,0.44,0.354,0.574c-0.013,0.175-0.257,0.365-0.541,0.586c-0.13,0.099-0.271,0.208-0.407,0.331
		c-0.264-0.221-0.529-0.53-0.813-0.959c-0.609-0.936-1.184-1.419-1.748-1.478c-0.537-0.056-0.94,0.28-1.199,0.538
		c-0.248,0.249-0.788,0.652-1.408,1.058c-0.005-0.138-0.012-0.288-0.02-0.447c-0.043-0.965-0.103-2.283,0.006-3.129
		C69.252,117.08,68.456,116.737,67.311,116.41z"/>
</g>
</svg>
